<svg width="148" height="112" viewBox="0 0 148 112" fill="none" xmlns="http://www.w3.org/2000/svg">
<path d="M144.907 16.2265C143.205 9.83913 138.191 4.80932 131.823 3.10226C120.281 -9.88354e-05 74 -0.000100434 74 -0.000100434C74 -0.000100434 27.7191 -9.88354e-05 16.1773 3.10226C9.80971 4.80932 4.79449 9.83913 3.09264 16.2265C0 27.8033 0 51.9573 0 51.9573C0 51.9573 0 76.1111 3.09264 87.6889C4.79449 94.0756 9.80971 99.1053 16.1773 100.813C27.7191 103.915 74 103.915 74 103.915C74 103.915 120.281 103.915 131.823 100.813C138.191 99.1053 143.205 94.0756 144.907 87.6889C148 76.1111 148 51.9573 148 51.9573C148 51.9573 148 27.8033 144.907 16.2265Z" fill="#662576"/>
<path d="M64.9694 61.9751V28.7695C64.9694 25.3235 70.4452 23.5326 73.8123 25.8774L97.6522 42.4802C99.8942 44.0417 99.8942 46.703 97.6522 48.2644L73.8123 64.8672C70.4452 67.2121 64.9694 65.4212 64.9694 61.9751Z" fill="#662576"/>
<path d="M104.436 23.6656V67.079M64.9694 28.7695V61.9751C64.9694 65.4212 70.4452 67.2121 73.8123 64.8672L97.6522 48.2644C99.8942 46.703 99.8942 44.0417 97.6522 42.4802L73.8123 25.8774C70.4452 23.5326 64.9694 25.3235 64.9694 28.7695Z" stroke="white" stroke-opacity="0.4" stroke-width="2.86133" stroke-linecap="round" stroke-linejoin="round"/>
<path d="M57.076 67.5259L95.7579 45.5969L57.076 23.6658V67.5259Z" fill="white"/>
<path d="M18.3757 101.962C18.3609 101.962 18.3089 101.947 18.2198 101.918C18.1753 101.903 18.1233 101.851 18.0639 101.762C18.049 101.717 18.0342 101.673 18.0193 101.628C18.0045 101.584 17.9971 101.539 17.9971 101.495C17.9525 101.272 17.9302 101.049 17.9302 100.826V99.2894C17.9302 99.1558 17.9154 99.0222 17.8857 98.8885C17.856 98.7549 17.8263 98.6212 17.7966 98.4876C17.7966 98.4579 17.7818 98.4133 17.7521 98.3539C17.7372 98.3094 17.7149 98.2648 17.6852 98.2203C17.6555 98.1609 17.6258 98.1089 17.5961 98.0644C17.5367 97.9604 17.4922 97.8491 17.4625 97.7303C17.4328 97.6115 17.4105 97.5001 17.3957 97.3962C17.3808 97.2328 17.3808 97.0769 17.3957 96.9284C17.4254 96.8393 17.4477 96.7577 17.4625 96.6834C17.4774 96.5943 17.4996 96.5127 17.5293 96.4384C17.5739 96.3196 17.611 96.2008 17.6407 96.082C17.6704 95.9484 17.7075 95.8148 17.7521 95.6811L18.0862 94.5897C18.1901 94.2779 18.3237 93.9586 18.4871 93.6319C18.6504 93.3201 18.8063 92.9712 18.9548 92.5851C18.9845 92.496 19.0217 92.3995 19.0662 92.2955C19.1256 92.1322 19.185 91.9763 19.2444 91.8278C19.3186 91.6644 19.3855 91.5085 19.4449 91.36L19.779 90.4245C19.8087 90.3651 19.8309 90.3057 19.8458 90.2464C19.8606 90.187 19.8755 90.1276 19.8903 90.0682C20.0091 89.7712 20.1279 89.4891 20.2467 89.2218C20.3358 89.0436 20.3952 88.8505 20.4249 88.6427C20.4546 88.4348 20.4546 88.2269 20.4249 88.019C20.41 87.9299 20.3952 87.8408 20.3803 87.7517C20.3803 87.6478 20.3803 87.5512 20.3803 87.4622C20.3803 87.4176 20.3655 87.3805 20.3358 87.3508C20.3209 87.3062 20.3209 87.2617 20.3358 87.2171C20.3506 87.1874 20.3655 87.1577 20.3803 87.128C20.41 87.0984 20.4323 87.0687 20.4472 87.039C20.4917 86.8756 20.5585 86.7345 20.6476 86.6158C20.7516 86.4821 20.8629 86.3633 20.9817 86.2594C21.0411 86.2 21.1228 86.1554 21.2267 86.1257C21.2861 86.096 21.3381 86.0663 21.3827 86.0366C21.4421 86.0069 21.494 85.9698 21.5386 85.9253C21.6128 85.8659 21.6945 85.8288 21.7836 85.8139C21.9024 85.7991 22.0286 85.7545 22.1622 85.6803C22.281 85.606 22.4147 85.5837 22.5632 85.6134H22.7636C22.8676 85.6134 22.9789 85.6506 23.0977 85.7248C23.1274 85.7397 23.1571 85.7619 23.1868 85.7916C23.2314 85.8065 23.2759 85.8288 23.3205 85.8585C23.4393 85.9475 23.4986 86.0589 23.4986 86.1926C23.4986 86.2965 23.5061 86.393 23.5209 86.4821C23.5506 86.5712 23.5729 86.6677 23.5877 86.7717C23.6174 86.8608 23.6174 86.9573 23.5877 87.0612C23.5729 87.0909 23.5655 87.128 23.5655 87.1726C23.5655 87.2023 23.558 87.232 23.5432 87.2617C23.5432 87.3211 23.5358 87.3805 23.5209 87.4399C23.5209 87.4993 23.5135 87.5587 23.4986 87.6181C23.4541 87.722 23.4689 87.826 23.5432 87.9299C23.662 88.1229 23.7659 88.3234 23.855 88.5313C23.959 88.7392 24.0629 88.9471 24.1669 89.1549L24.5678 89.8677C24.6866 90.0607 24.8054 90.2909 24.9242 90.5582C24.9539 90.6027 24.9761 90.6473 24.991 90.6918C25.0207 90.7364 25.0504 90.7809 25.0801 90.8255C25.1246 90.8997 25.1617 90.9814 25.1914 91.0705C25.236 91.1596 25.2805 91.2487 25.3251 91.3378C25.4439 91.5605 25.5404 91.7907 25.6146 92.0282C25.7037 92.251 25.7928 92.4886 25.8819 92.741C25.8819 92.7558 25.8819 92.7707 25.8819 92.7855C25.8968 92.7855 25.9042 92.793 25.9042 92.8078C25.919 92.9118 25.9933 92.9637 26.1269 92.9637C26.1715 92.9489 26.216 92.9415 26.2606 92.9415C26.32 92.9415 26.3719 92.9415 26.4165 92.9415C26.5798 92.9415 26.7209 92.9712 26.8397 93.0306C26.9139 93.0454 26.9882 93.0899 27.0624 93.1642C27.1812 93.283 27.2629 93.3795 27.3074 93.4538C27.352 93.528 27.3817 93.6394 27.3965 93.7879C27.4559 94.07 27.3965 94.315 27.2183 94.5229L27.0847 94.6343C27.055 94.6639 27.0179 94.6936 26.9733 94.7233C26.9288 94.7382 26.8917 94.7605 26.862 94.7902C26.7877 94.8496 26.7432 94.8941 26.7283 94.9238C26.7283 94.9535 26.7506 95.0203 26.7951 95.1243L27.1292 95.9261C27.2629 96.2231 27.3965 96.5201 27.5302 96.8171C27.6787 97.114 27.8272 97.411 27.9756 97.708C28.035 97.812 28.0796 97.9159 28.1093 98.0198C28.1538 98.1238 28.1835 98.2351 28.1984 98.3539C28.2132 98.443 28.2132 98.5321 28.1984 98.6212C28.1984 98.7103 28.191 98.7994 28.1761 98.8885C28.1761 98.9034 28.1613 98.9553 28.1316 99.0444C28.087 99.1038 28.0425 99.1632 27.9979 99.2226C27.9682 99.282 27.9311 99.3414 27.8865 99.4008C27.7678 99.5641 27.6712 99.7498 27.597 99.9576C27.5673 100.091 27.4708 100.195 27.3074 100.269C27.2183 100.314 27.1218 100.314 27.0179 100.269C26.8842 100.225 26.7951 100.136 26.7506 100.002L26.706 99.8908C26.6615 99.7423 26.5947 99.6013 26.5056 99.4676C26.4462 99.3637 26.3868 99.2597 26.3274 99.1558C26.2828 99.037 26.2309 98.9256 26.1715 98.8217C26.1566 98.792 26.1492 98.7697 26.1492 98.7549C26.1492 98.7252 26.1418 98.7029 26.1269 98.688C26.1121 98.599 26.0824 98.5173 26.0378 98.443C26.0081 98.3539 25.971 98.2723 25.9265 98.198C25.8374 97.9753 25.7409 97.76 25.6369 97.5521C25.5478 97.3294 25.4513 97.1066 25.3474 96.8839L25.0133 96.1711C24.9984 96.1266 24.9836 96.082 24.9687 96.0375C24.9539 95.9781 24.9316 95.9187 24.9019 95.8593L24.6346 95.2579C24.6346 95.2282 24.6198 95.1837 24.5901 95.1243C24.5158 95.0055 24.4193 94.9387 24.3005 94.9238C24.1966 94.9238 24.1 94.9164 24.0109 94.9015C23.9218 94.8867 23.8328 94.8793 23.7437 94.8793C23.5061 94.8793 23.2685 94.9015 23.0309 94.9461C22.7933 94.9906 22.5706 95.0723 22.3627 95.1911C22.0806 95.3544 21.791 95.4584 21.494 95.5029C21.4346 95.5029 21.3752 95.5103 21.3158 95.5252C21.2564 95.54 21.197 95.5623 21.1376 95.592C21.0486 95.6514 20.9966 95.7182 20.9817 95.7925C20.952 95.8816 20.9372 95.9484 20.9372 95.9929L20.8704 96.3048C20.8555 96.4087 20.7961 96.5127 20.6922 96.6166C20.6179 96.6908 20.514 96.728 20.3803 96.728C20.1873 96.6983 20.0611 96.6018 20.0017 96.4384C19.9868 96.3939 19.972 96.3493 19.9571 96.3048C19.9423 96.2602 19.9274 96.2083 19.9126 96.1489C19.8532 96.238 19.8458 96.3122 19.8903 96.3716C19.92 96.431 19.9052 96.483 19.8458 96.5275C19.8161 96.5572 19.8087 96.5795 19.8235 96.5943C19.8532 96.6537 19.8458 96.7057 19.8012 96.7502C19.7567 96.7948 19.7418 96.8468 19.7567 96.9062C19.7715 96.9359 19.7715 96.973 19.7567 97.0175C19.6824 97.1215 19.6305 97.2477 19.6008 97.3962C19.6156 97.4556 19.5785 97.5001 19.4894 97.5298C19.4597 97.5298 19.4449 97.5447 19.4449 97.5744C19.4152 97.6189 19.3855 97.6857 19.3558 97.7748C19.3409 97.8491 19.3186 97.9307 19.2889 98.0198C19.2741 98.0941 19.2518 98.1683 19.2221 98.2426L19.0885 98.7994V98.8885C19.0885 99.0222 19.0736 99.1558 19.0439 99.2894C19.0291 99.4082 19.0217 99.5344 19.0217 99.6681L18.9548 100.403C18.94 100.507 18.9251 100.611 18.9103 100.715C18.9103 100.834 18.9103 100.953 18.9103 101.071C18.8954 101.16 18.8806 101.242 18.8657 101.316C18.8657 101.405 18.8509 101.495 18.8212 101.584C18.7915 101.717 18.7395 101.814 18.6653 101.873C18.6059 101.962 18.5094 101.992 18.3757 101.962ZM21.2713 92.9415H21.2936C21.4421 92.9118 21.5831 92.8895 21.7168 92.8746C21.8504 92.8598 21.984 92.8449 22.1177 92.8301C22.2068 92.8152 22.2959 92.8078 22.385 92.8078C22.4741 92.793 22.5632 92.7855 22.6523 92.7855H23.12C23.1497 92.7855 23.1794 92.7855 23.2091 92.7855C23.2388 92.7707 23.2611 92.7633 23.2759 92.7633C23.3056 92.7633 23.3205 92.7336 23.3205 92.6742C23.2759 92.6148 23.2388 92.5554 23.2091 92.496C23.1794 92.4366 23.1497 92.3772 23.12 92.3178C23.0309 92.1099 22.9121 91.9317 22.7636 91.7832C22.7488 91.7535 22.7339 91.7313 22.7191 91.7164C22.7042 91.6867 22.6894 91.657 22.6745 91.6273C22.6597 91.5976 22.6374 91.5679 22.6077 91.5382C22.5929 91.4937 22.5706 91.4566 22.5409 91.4269C22.4666 91.3675 22.3924 91.3823 22.3181 91.4714L22.2513 91.6496C22.2365 91.7684 22.2142 91.8946 22.1845 92.0282C22.1548 92.147 22.1251 92.2658 22.0954 92.3846C22.0954 92.4143 22.0806 92.4589 22.0509 92.5183C22.0212 92.6074 21.9469 92.6742 21.8281 92.7187C21.7242 92.7633 21.6128 92.7484 21.494 92.6742L21.3604 92.5851C21.3604 92.5851 21.3455 92.5851 21.3158 92.5851C21.2861 92.6445 21.2713 92.689 21.2713 92.7187C21.2713 92.7484 21.2713 92.7781 21.2713 92.8078C21.2861 92.8375 21.2787 92.8672 21.249 92.8969C21.2193 92.9266 21.2267 92.9415 21.2713 92.9415ZM43.3115 106.818C43.1482 106.848 43.0443 106.803 42.9997 106.684C42.9849 106.655 42.97 106.617 42.9552 106.573C42.9403 106.528 42.918 106.491 42.8883 106.462C42.8735 106.387 42.8586 106.313 42.8438 106.239C42.8289 106.165 42.8141 106.09 42.7992 106.016C42.7844 105.957 42.7695 105.897 42.7547 105.838C42.7547 105.778 42.7547 105.719 42.7547 105.66C42.7398 105.526 42.725 105.392 42.7101 105.259C42.6953 105.14 42.6804 105.014 42.6656 104.88C42.6656 104.85 42.6582 104.821 42.6433 104.791C42.6433 104.761 42.6433 104.732 42.6433 104.702C42.6433 104.509 42.6359 104.316 42.6211 104.123C42.6211 103.93 42.6136 103.737 42.5988 103.544C42.5839 103.499 42.5765 103.447 42.5765 103.388C42.5765 103.343 42.5765 103.299 42.5765 103.254V103.098C42.5617 102.89 42.5468 102.682 42.532 102.475C42.532 102.267 42.532 102.059 42.532 101.851C42.532 101.688 42.5171 101.517 42.4874 101.339C42.4726 101.175 42.4503 101.019 42.4206 100.871C42.376 100.693 42.3092 100.537 42.2201 100.403C42.1459 100.269 42.0791 100.128 42.0197 99.9799C41.9603 99.8463 41.9009 99.7052 41.8415 99.5567C41.8266 99.4973 41.7969 99.4453 41.7524 99.4008C41.7227 99.3563 41.693 99.3117 41.6633 99.2672C41.4703 99.0296 41.2772 98.792 41.0842 98.5544C40.8911 98.3168 40.6981 98.0718 40.5051 97.8194L39.9037 97.0398L39.3246 96.3048C39.2058 96.1414 39.0796 95.9855 38.9459 95.837C38.8271 95.6737 38.7083 95.5103 38.5895 95.347C38.4113 95.0946 38.2257 94.8496 38.0327 94.612C37.8397 94.3595 37.6392 94.1145 37.4313 93.8769C36.9561 93.2533 36.481 92.6668 36.0058 92.1173C35.9464 92.0282 35.887 91.9466 35.8276 91.8723C35.7682 91.7832 35.7088 91.6941 35.6494 91.605C35.59 91.5308 35.5306 91.4566 35.4712 91.3823C35.4118 91.2932 35.345 91.2115 35.2708 91.1373C35.2262 91.0779 35.1817 91.0259 35.1371 90.9814C35.0926 90.9368 35.0555 90.8849 35.0258 90.8255L34.0903 89.7563C34.0457 89.6969 34.0012 89.645 33.9566 89.6004C33.9121 89.5559 33.8675 89.5113 33.823 89.4668C33.6745 89.3034 33.5186 89.1401 33.3552 88.9768C33.2067 88.7986 33.0508 88.6352 32.8875 88.4867C32.8281 88.4125 32.7687 88.3457 32.7093 88.2863C32.6499 88.2269 32.5757 88.1749 32.4866 88.1304C32.4866 88.1304 32.4791 88.1304 32.4643 88.1304C32.4494 88.1304 32.4346 88.1378 32.4197 88.1526V88.2195C32.4049 88.2492 32.3975 88.2937 32.3975 88.3531C32.3975 88.4719 32.3975 88.5907 32.3975 88.7095C32.3975 88.8134 32.39 88.9248 32.3752 89.0436C32.3603 89.103 32.3529 89.1624 32.3529 89.2218C32.3678 89.2663 32.3678 89.3109 32.3529 89.3554V90.4023C32.3529 90.4468 32.3529 90.4988 32.3529 90.5582C32.3529 90.6027 32.3455 90.6547 32.3307 90.7141C32.3158 90.8032 32.3084 90.8923 32.3084 90.9814C32.3084 91.0705 32.3084 91.167 32.3084 91.2709V91.8501C32.3084 91.9837 32.301 92.1173 32.2861 92.251C32.2861 92.3846 32.2787 92.5183 32.2638 92.6519C32.249 92.8301 32.2416 93.0083 32.2416 93.1865C32.2416 93.3647 32.2416 93.5428 32.2416 93.721C32.2416 93.8547 32.2416 93.9883 32.2416 94.122C32.2416 94.2408 32.2267 94.3595 32.197 94.4783V94.7011C32.197 94.8199 32.197 94.9461 32.197 95.0797C32.197 95.2134 32.1896 95.3396 32.1747 95.4584C32.1747 95.5326 32.1747 95.6143 32.1747 95.7034C32.1747 95.7776 32.1673 95.8519 32.1525 95.9261C32.1376 96.0301 32.1376 96.1414 32.1525 96.2602C32.1525 96.3939 32.1525 96.5275 32.1525 96.6611C32.1673 96.7948 32.1822 96.921 32.197 97.0398L32.2638 97.4853C32.2935 97.6783 32.3307 97.8713 32.3752 98.0644C32.4197 98.2426 32.4643 98.4282 32.5088 98.6212C32.5237 98.6658 32.5385 98.7177 32.5534 98.7771C32.5682 98.8217 32.5831 98.8662 32.5979 98.9108C32.6425 99.0147 32.6573 99.1187 32.6425 99.2226C32.6425 99.3117 32.6351 99.4082 32.6202 99.5122C32.6054 99.5567 32.5682 99.6235 32.5088 99.7126C32.4791 99.772 32.442 99.8314 32.3975 99.8908C32.3678 99.9354 32.3307 99.9799 32.2861 100.024C32.2267 100.114 32.1896 100.18 32.1747 100.225C32.1747 100.269 32.1599 100.321 32.1302 100.381V100.47C32.0708 100.708 31.9075 100.826 31.6402 100.826C31.5511 100.841 31.462 100.789 31.3729 100.67C31.3729 100.656 31.3655 100.641 31.3506 100.626C31.3506 100.611 31.3506 100.596 31.3506 100.581C31.3358 100.463 31.2912 100.359 31.217 100.269C31.1576 100.195 31.0982 100.121 31.0388 100.047C31.0091 100.002 30.972 99.9651 30.9274 99.9354C30.8977 99.8908 30.868 99.8537 30.8383 99.824C30.7789 99.7349 30.7418 99.6607 30.727 99.6013L30.6379 99.3785C30.5785 99.2152 30.5265 99.0593 30.4819 98.9108C30.4374 98.7623 30.4003 98.6138 30.3706 98.4653C30.3706 98.4356 30.3631 98.4133 30.3483 98.3985C30.3038 98.2352 30.2666 98.0644 30.2369 97.8862C30.2221 97.708 30.1998 97.5298 30.1701 97.3516C30.1701 97.2625 30.1627 97.1883 30.1478 97.1289C30.133 96.921 30.1256 96.7205 30.1256 96.5275C30.1404 96.3196 30.1478 96.1192 30.1478 95.9261V95.1243C30.1478 95.0055 30.1478 94.8941 30.1478 94.7902C30.1627 94.6714 30.1775 94.56 30.1924 94.4561C30.2072 94.3818 30.2147 94.315 30.2147 94.2556C30.2147 94.1814 30.2147 94.1145 30.2147 94.0551C30.2147 93.9809 30.2147 93.9066 30.2147 93.8324C30.2147 93.7582 30.2221 93.6839 30.2369 93.6097C30.2518 93.4909 30.2592 93.3721 30.2592 93.2533C30.2592 93.1345 30.2592 93.0231 30.2592 92.9192C30.2741 92.8152 30.2741 92.7187 30.2592 92.6296C30.2592 92.5257 30.2592 92.4217 30.2592 92.3178C30.2741 92.199 30.2815 92.0802 30.2815 91.9614C30.2815 91.8278 30.2815 91.6941 30.2815 91.5605C30.2963 91.3823 30.3038 91.2041 30.3038 91.0259C30.3038 90.8477 30.3038 90.6696 30.3038 90.4914C30.3186 90.3429 30.326 90.2018 30.326 90.0682C30.326 89.9197 30.3335 89.7712 30.3483 89.6227C30.3631 89.5781 30.3706 89.5113 30.3706 89.4222V87.3285C30.3409 87.1355 30.3186 86.9499 30.3038 86.7717C30.3038 86.5786 30.3038 86.3856 30.3038 86.1926C30.3038 86.0886 30.2815 85.9847 30.2369 85.8807C30.2369 85.851 30.2221 85.8065 30.1924 85.7471C30.0736 85.4501 30.081 85.1383 30.2147 84.8116C30.3335 84.5443 30.5636 84.3513 30.9051 84.2325C31.0982 84.1731 31.3135 84.1805 31.5511 84.2548C31.6105 84.2696 31.6624 84.2919 31.707 84.3216C31.7664 84.3513 31.8109 84.3884 31.8406 84.4329C31.8703 84.4626 31.8852 84.4849 31.8852 84.4998C32.0485 84.6928 32.2267 84.871 32.4197 85.0343C32.5237 85.1383 32.6202 85.2422 32.7093 85.3462C32.8132 85.4353 32.9172 85.5392 33.0211 85.658L33.6002 86.2594C33.7339 86.393 33.8601 86.5267 33.9789 86.6603C34.1125 86.7791 34.2388 86.9127 34.3575 87.0612L34.5135 87.2171C34.6768 87.3953 34.8401 87.5735 35.0035 87.7517C35.1817 87.9299 35.345 88.1155 35.4935 88.3085C35.5826 88.4125 35.6717 88.5164 35.7608 88.6204C35.8499 88.7095 35.939 88.8134 36.0281 88.9322L36.5404 89.5336C36.8225 89.89 37.0972 90.2538 37.3645 90.625C37.6318 90.9814 37.9065 91.3378 38.1886 91.6941C38.3074 91.8426 38.4188 91.9911 38.5227 92.1396C38.6415 92.2881 38.7529 92.4366 38.8568 92.5851L39.0127 92.7855C39.087 92.9043 39.1686 93.0231 39.2577 93.1419C39.3468 93.2459 39.4359 93.3572 39.525 93.476C39.6438 93.6245 39.7626 93.773 39.8814 93.9215C40.0002 94.0551 40.1116 94.1888 40.2155 94.3224C40.3194 94.4264 40.416 94.5452 40.5051 94.6788C40.7575 94.9609 40.9951 95.2431 41.2178 95.5252C41.2475 95.54 41.2698 95.54 41.2846 95.5252V95.5029C41.2846 95.4435 41.2846 95.3841 41.2846 95.3247C41.2995 95.2505 41.3069 95.1837 41.3069 95.1243C41.2921 95.05 41.2846 94.9906 41.2846 94.9461C41.2846 94.8867 41.2846 94.8273 41.2846 94.7679C41.2846 94.6639 41.2846 94.5674 41.2846 94.4783C41.2846 94.3744 41.2772 94.2704 41.2624 94.1665V93.8547C41.2475 93.7359 41.2401 93.6245 41.2401 93.5206C41.2401 93.4018 41.2401 93.2904 41.2401 93.1865V93.1419C41.2252 92.9786 41.2104 92.8152 41.1955 92.6519C41.1955 92.4737 41.1881 92.3029 41.1733 92.1396C41.1733 92.0357 41.1658 91.9391 41.151 91.8501C41.1361 91.761 41.1213 91.6719 41.1064 91.5828C41.1064 91.5382 41.099 91.4937 41.0842 91.4491C41.0842 91.3897 41.0842 91.3378 41.0842 91.2932C41.0693 91.1299 41.0619 90.974 41.0619 90.8255C41.0619 90.677 41.0545 90.5285 41.0396 90.38C41.0248 90.1424 41.0025 89.9048 40.9728 89.6672C40.958 89.4297 40.9505 89.1921 40.9505 88.9545C40.9654 88.6278 40.9654 88.3085 40.9505 87.9967C40.9505 87.6849 40.9505 87.3656 40.9505 87.039V86.638C40.9505 86.5935 40.9431 86.5638 40.9283 86.5489C40.9134 86.4301 40.906 86.3188 40.906 86.2148C40.906 86.1109 40.906 86.0069 40.906 85.903V85.6803C40.906 85.5466 40.8986 85.413 40.8837 85.2793C40.8689 85.1457 40.8392 85.0195 40.7946 84.9007V84.8561C40.7352 84.7077 40.7426 84.5443 40.8169 84.3661C40.8614 84.2176 40.9283 84.0914 41.0174 83.9875C41.1064 83.8687 41.203 83.7573 41.3069 83.6534L41.4628 83.5865C41.7004 83.4975 41.9306 83.49 42.1533 83.5643L42.4874 83.7647C42.5171 83.7796 42.5394 83.8093 42.5542 83.8538C42.5839 83.8835 42.6062 83.9132 42.6211 83.9429C42.7695 84.1657 42.8438 84.3884 42.8438 84.6111C42.8438 84.6705 42.8438 84.7373 42.8438 84.8116C42.8586 84.871 42.8661 84.9378 42.8661 85.0121C42.8661 85.0715 42.8586 85.1308 42.8438 85.1902C42.8289 85.2496 42.8215 85.309 42.8215 85.3684C42.8364 85.5763 42.8364 85.7916 42.8215 86.0144C42.8215 86.2223 42.8215 86.4301 42.8215 86.638C42.8215 86.742 42.8215 86.8459 42.8215 86.9499C42.8364 87.0538 42.8438 87.1652 42.8438 87.284C42.8438 87.3434 42.8438 87.4102 42.8438 87.4844C42.8438 87.5438 42.8512 87.6106 42.8661 87.6849C42.8809 87.7443 42.8883 87.8185 42.8883 87.9076V88.4199C42.8883 88.4942 42.8883 88.5684 42.8883 88.6427C42.8883 88.7169 42.8958 88.7911 42.9106 88.8654C42.9255 88.9396 42.9329 89.0213 42.9329 89.1104C42.9329 89.1846 42.9403 89.2589 42.9552 89.3331C42.9552 89.3925 42.9552 89.4519 42.9552 89.5113C42.9552 89.5559 42.9626 89.6078 42.9774 89.6672C42.9774 89.6969 42.9774 89.7266 42.9774 89.7563C42.9923 89.786 42.9997 89.8157 42.9997 89.8454C42.9997 89.9345 42.9997 90.0236 42.9997 90.1127C43.0146 90.2018 43.0294 90.2909 43.0443 90.38C43.0443 90.5433 43.0517 90.7141 43.0665 90.8923C43.0962 91.0705 43.1111 91.2487 43.1111 91.4269C43.1111 91.4862 43.1111 91.5456 43.1111 91.605C43.1259 91.6496 43.1408 91.7016 43.1556 91.761V91.8723C43.1556 92.0357 43.163 92.199 43.1779 92.3623C43.2076 92.5257 43.2224 92.689 43.2224 92.8524V92.9415C43.2521 93.0899 43.267 93.2384 43.267 93.3869C43.267 93.5354 43.2744 93.6913 43.2893 93.8547C43.2893 93.9141 43.2893 93.9735 43.2893 94.0329C43.2893 94.0923 43.2967 94.1517 43.3115 94.2111C43.3115 94.2259 43.3115 94.2482 43.3115 94.2779C43.3264 94.2927 43.3338 94.3076 43.3338 94.3224C43.3338 94.4709 43.3412 94.612 43.3561 94.7456C43.3709 94.8793 43.3858 95.0129 43.4006 95.1465L43.4675 95.6366L43.4897 95.7925C43.5046 95.9558 43.5194 96.1192 43.5343 96.2825C43.564 96.4458 43.5862 96.6092 43.6011 96.7725L43.6679 97.3962C43.6976 97.5892 43.7347 97.7823 43.7793 97.9753C43.8238 98.1683 43.8981 98.3539 44.002 98.5321C44.0466 98.6212 44.0763 98.7177 44.0911 98.8217C44.1208 98.9108 44.1431 98.9999 44.1579 99.089V99.2672C44.1431 99.3117 44.1357 99.3785 44.1357 99.4676C44.1208 99.6458 44.0763 99.824 44.002 100.002C43.9723 100.091 43.9426 100.18 43.9129 100.269C43.8832 100.359 43.8535 100.448 43.8238 100.537C43.809 100.596 43.8016 100.648 43.8016 100.693C43.8016 100.752 43.7941 100.811 43.7793 100.871C43.7347 101.138 43.7125 101.405 43.7125 101.673V102.341C43.7273 102.534 43.7347 102.727 43.7347 102.92C43.7347 103.113 43.7347 103.306 43.7347 103.499V103.945C43.7347 104.019 43.7347 104.093 43.7347 104.167C43.7347 104.256 43.7422 104.338 43.757 104.412C43.7719 104.442 43.7719 104.479 43.757 104.524C43.757 104.568 43.757 104.605 43.757 104.635C43.7422 104.709 43.7347 104.784 43.7347 104.858C43.7347 104.947 43.7347 105.029 43.7347 105.103V105.972C43.7347 106.135 43.7125 106.306 43.6679 106.484C43.6234 106.662 43.5046 106.773 43.3115 106.818ZM49.3649 100.18C49.3501 100.18 49.3278 100.173 49.2981 100.158C49.2832 100.158 49.261 100.158 49.2313 100.158C49.1273 100.158 49.0531 100.114 49.0085 100.024C48.9491 99.9205 48.8897 99.8314 48.8303 99.7572C48.7709 99.6829 48.7041 99.6087 48.6299 99.5344C48.5556 99.4602 48.4888 99.3785 48.4294 99.2894C48.3849 99.2003 48.3403 99.1112 48.2958 99.0222C48.2512 98.9479 48.229 98.8737 48.229 98.7994V98.5767C48.229 98.5024 48.2215 98.4282 48.2067 98.3539C48.2067 98.2648 48.1993 98.1832 48.1844 98.1089C48.1547 97.9901 48.125 97.8639 48.0953 97.7303C48.0805 97.5966 48.0582 97.4704 48.0285 97.3516C48.0285 97.3219 48.0211 97.2922 48.0062 97.2625C48.0062 97.218 48.0062 97.1809 48.0062 97.1512C47.9914 96.9878 47.9691 96.8245 47.9394 96.6611C47.9097 96.483 47.88 96.3122 47.8503 96.1489C47.8058 95.8519 47.7538 95.5623 47.6944 95.2802C47.6498 94.9832 47.6053 94.6936 47.5607 94.4115L47.4271 93.6765C47.4123 93.5577 47.3677 93.4315 47.2935 93.2978C47.2044 93.1345 47.1375 92.9563 47.093 92.7633C47.0782 92.6742 47.0559 92.5925 47.0262 92.5183C46.9965 92.4292 46.9668 92.3401 46.9371 92.251C46.8925 92.1025 46.848 91.954 46.8034 91.8055C46.7589 91.657 46.7218 91.5085 46.6921 91.36C46.6772 91.2412 46.655 91.1224 46.6253 91.0037C46.5956 90.8849 46.5659 90.7661 46.5362 90.6473L46.4025 90.0459C46.4025 90.0162 46.3951 89.9939 46.3802 89.9791C46.3654 89.7712 46.3357 89.5633 46.2912 89.3554C46.2466 89.1327 46.2021 88.9174 46.1575 88.7095C46.1427 88.5907 46.1204 88.4496 46.0907 88.2863C46.0758 88.1081 46.0758 87.967 46.0907 87.8631V87.6403C46.1204 87.4325 46.1872 87.2394 46.2912 87.0612C46.4099 86.8533 46.603 86.69 46.8703 86.5712C46.9445 86.5415 47.0188 86.5192 47.093 86.5044C47.1672 86.4895 47.2341 86.4747 47.2935 86.4598C47.4568 86.445 47.6127 86.4673 47.7612 86.5267C47.9097 86.5712 48.0582 86.638 48.2067 86.7271C48.2512 86.7568 48.2884 86.7939 48.318 86.8385C48.3626 86.9127 48.4071 86.987 48.4517 87.0612C48.5111 87.1355 48.5482 87.2171 48.5631 87.3062C48.5928 87.3953 48.6225 87.4844 48.6522 87.5735C48.6967 87.6626 48.7412 87.7443 48.7858 87.8185C48.86 87.967 48.912 88.1229 48.9417 88.2863C48.9714 88.4496 49.0011 88.613 49.0308 88.7763C49.0754 88.999 49.0976 89.2366 49.0976 89.4891V89.6004C49.1273 89.7489 49.1422 89.8974 49.1422 90.0459C49.1422 90.1795 49.1422 90.3206 49.1422 90.4691C49.157 90.7067 49.1793 90.9443 49.209 91.1818C49.2387 91.4046 49.2684 91.6422 49.2981 91.8946L49.4317 92.9415V92.986C49.4614 93.1493 49.4911 93.3201 49.5208 93.4983C49.5654 93.6616 49.5951 93.825 49.6099 93.9883C49.6545 94.2408 49.699 94.5006 49.7436 94.7679C49.803 95.0203 49.8475 95.2728 49.8772 95.5252L50.0108 96.4607C50.0405 96.6092 50.0628 96.7577 50.0777 96.9062C50.1074 97.0546 50.1371 97.2031 50.1668 97.3516C50.1965 97.5001 50.2187 97.6486 50.2336 97.7971C50.2633 97.9307 50.293 98.0718 50.3227 98.2203C50.3375 98.2797 50.3449 98.3391 50.3449 98.3985C50.3598 98.443 50.3672 98.495 50.3672 98.5544C50.3821 98.7771 50.3449 98.9925 50.2559 99.2003C50.241 99.2597 50.2039 99.3191 50.1445 99.3785C50.0851 99.4676 50.0331 99.527 49.9886 99.5567C49.8698 99.6755 49.7807 99.8017 49.7213 99.9354C49.7213 99.9502 49.7064 99.9725 49.6767 100.002C49.6619 100.032 49.6396 100.062 49.6099 100.091C49.5505 100.151 49.4689 100.18 49.3649 100.18ZM53.9733 101.74C53.8099 101.71 53.6986 101.636 53.6392 101.517C53.5946 101.428 53.5575 101.331 53.5278 101.227C53.513 101.138 53.4981 101.049 53.4833 100.96C53.4684 100.841 53.4536 100.715 53.4387 100.581C53.4239 100.463 53.409 100.344 53.3942 100.225C53.3793 100.076 53.357 99.9354 53.3273 99.8017C53.2976 99.6681 53.2531 99.527 53.1937 99.3785C53.1789 99.334 53.164 99.2969 53.1492 99.2672C53.1343 99.2226 53.112 99.1781 53.0823 99.1335L52.8151 98.5767C52.7408 98.4282 52.7037 98.2797 52.7037 98.1312C52.6888 97.9382 52.6814 97.7526 52.6814 97.5744C52.6814 97.3962 52.6888 97.218 52.7037 97.0398C52.7037 96.9804 52.7185 96.9062 52.7482 96.8171C52.7779 96.6686 52.8076 96.5275 52.8373 96.3939C52.8819 96.2454 52.9116 96.1043 52.9264 95.9707C52.9561 95.7925 52.9858 95.6217 53.0155 95.4584C53.0452 95.2802 53.0675 95.1094 53.0823 94.9461C53.112 94.7827 53.1343 94.6194 53.1492 94.4561C53.164 94.2927 53.1789 94.1294 53.1937 93.966C53.2086 93.8473 53.2234 93.7359 53.2383 93.6319C53.2531 93.5131 53.2679 93.4018 53.2828 93.2978C53.2976 93.2533 53.3051 93.1865 53.3051 93.0974C53.3051 93.0231 53.3125 92.9489 53.3273 92.8746C53.3422 92.7855 53.357 92.7039 53.3719 92.6296C53.4016 92.5108 53.4164 92.392 53.4164 92.2732C53.4313 92.1396 53.4461 92.0134 53.461 91.8946C53.4758 91.8501 53.4833 91.7907 53.4833 91.7164C53.5278 91.5531 53.5575 91.3823 53.5724 91.2041C53.6021 91.0259 53.6243 90.8477 53.6392 90.6696L53.706 90.2909C53.7357 90.1276 53.758 89.9642 53.7728 89.8009C53.7877 89.6227 53.8025 89.4519 53.8174 89.2886C53.8471 89.1252 53.8619 88.9619 53.8619 88.7986C53.8619 88.6204 53.8619 88.4496 53.8619 88.2863C53.8619 88.1972 53.8619 88.1155 53.8619 88.0413C53.8768 87.9522 53.8916 87.8631 53.9065 87.774C53.9362 87.3879 53.9065 87.0167 53.8174 86.6603C53.8025 86.6455 53.7951 86.6306 53.7951 86.6158C53.7357 86.4227 53.7283 86.2445 53.7728 86.0812C53.8174 85.9179 53.8916 85.7619 53.9956 85.6134C54.1737 85.3165 54.4262 85.1383 54.7529 85.0789C54.8123 85.064 54.8642 85.0566 54.9088 85.0566C54.9533 85.0418 55.0053 85.0418 55.0647 85.0566C55.1241 85.0863 55.1761 85.1012 55.2206 85.1012C55.3542 85.116 55.4805 85.1754 55.5993 85.2793L55.7997 85.5466C55.9037 85.7248 56.0002 85.8585 56.0893 85.9475C56.3269 86.2445 56.5347 86.5638 56.7129 86.9053C56.8169 87.0984 56.906 87.2914 56.9802 87.4844C57.0693 87.6626 57.1584 87.8408 57.2475 88.019C57.292 88.1229 57.3292 88.2195 57.3589 88.3085C57.4034 88.3976 57.448 88.4867 57.4925 88.5758C57.5222 88.6204 57.5668 88.6724 57.6261 88.7317C57.6855 88.8208 57.7152 88.8877 57.7152 88.9322C57.7449 88.9916 57.7375 89.0436 57.693 89.0881C57.6781 89.103 57.6781 89.1252 57.693 89.1549C57.7078 89.1846 57.7227 89.2143 57.7375 89.244C57.7524 89.2589 57.7821 89.348 57.8266 89.5113C57.8712 89.6598 57.886 89.7118 57.8712 89.6672C57.9009 89.7415 57.9454 89.7786 58.0048 89.7786C58.0493 89.7935 58.079 89.8232 58.0939 89.8677C58.1087 89.8974 58.0865 89.9345 58.0271 89.9791C57.9825 89.9939 57.9825 90.0533 58.0271 90.1573C58.0716 90.2464 58.1013 90.3057 58.1162 90.3354C58.1756 90.4839 58.2275 90.6324 58.2721 90.7809C58.3166 90.9146 58.3686 91.0556 58.428 91.2041C58.5022 91.3972 58.5691 91.5976 58.6285 91.8055C58.6879 92.0134 58.7473 92.2213 58.8067 92.4292C58.8512 92.5777 58.8957 92.7261 58.9403 92.8746C58.9997 93.0083 59.0517 93.1419 59.0962 93.2756C59.0962 93.3053 59.1111 93.3201 59.1408 93.3201L59.1853 93.2756C59.1853 93.2459 59.2002 93.2013 59.2298 93.1419C59.2595 92.9786 59.2967 92.8152 59.3412 92.6519C59.3858 92.4737 59.4303 92.3029 59.4749 92.1396C59.5491 91.9169 59.6085 91.6941 59.653 91.4714C59.7124 91.2487 59.7718 91.0259 59.8312 90.8032C59.8609 90.6696 59.8981 90.5359 59.9426 90.4023C59.9872 90.2538 60.0168 90.1127 60.0317 89.9791C60.0911 89.7266 60.1505 89.4816 60.2099 89.244C60.2693 89.0065 60.3213 88.7689 60.3658 88.5313C60.3807 88.5016 60.3881 88.4719 60.3881 88.4422C60.4029 88.4125 60.4103 88.3828 60.4103 88.3531C60.4252 88.2046 60.4697 88.0635 60.544 87.9299C60.6925 87.6181 60.9375 87.4176 61.279 87.3285C61.4424 87.284 61.6057 87.284 61.769 87.3285C61.9027 87.3582 61.9992 87.4102 62.0586 87.4844C62.1625 87.5884 62.2591 87.6923 62.3482 87.7963C62.4521 87.9002 62.5412 88.0116 62.6154 88.1304C62.6748 88.2195 62.7342 88.3085 62.7936 88.3976C62.853 88.4719 62.9124 88.5536 62.9718 88.6427C63.0164 88.702 63.0609 88.7689 63.1055 88.8431C63.15 88.9025 63.1871 88.9693 63.2168 89.0436C63.3356 89.2515 63.447 89.4668 63.5509 89.6895C63.6549 89.9122 63.744 90.1424 63.8182 90.38C63.8182 90.4097 63.8256 90.432 63.8405 90.4468C63.9147 90.5953 63.9741 90.7512 64.0187 90.9146C64.0632 91.0631 64.1078 91.219 64.1523 91.3823C64.2117 91.5456 64.2563 91.709 64.286 91.8723C64.3305 92.0357 64.375 92.199 64.4196 92.3623C64.4196 92.4217 64.427 92.4663 64.4419 92.496C64.4864 92.6148 64.5235 92.741 64.5532 92.8746C64.5829 93.0083 64.6126 93.1345 64.6423 93.2533C64.672 93.4315 64.7017 93.6097 64.7314 93.7879C64.7611 93.966 64.7908 94.1368 64.8205 94.3001C64.8502 94.5229 64.8799 94.7456 64.9096 94.9684C64.9393 95.1911 64.9764 95.4138 65.021 95.6366C65.0507 95.7851 65.073 95.941 65.0878 96.1043C65.1175 96.2676 65.1398 96.431 65.1546 96.5943C65.1546 96.6389 65.1695 96.7057 65.1992 96.7948L65.266 97.3294C65.266 97.4036 65.2734 97.4556 65.2883 97.4853C65.3625 97.7674 65.4071 98.057 65.4219 98.3539C65.4368 98.3688 65.4442 98.3911 65.4442 98.4208C65.4442 98.4356 65.4516 98.4579 65.4665 98.4876L65.6224 99.3785C65.6521 99.4825 65.6521 99.5938 65.6224 99.7126L65.5778 99.8908C65.5778 100.01 65.5556 100.121 65.511 100.225C65.4665 100.329 65.4145 100.433 65.3551 100.537C65.3105 100.596 65.2586 100.656 65.1992 100.715C65.1398 100.789 65.073 100.849 64.9987 100.893C64.8354 101.012 64.672 101.019 64.5087 100.915C64.1672 100.693 63.9147 100.418 63.7514 100.091C63.7365 100.032 63.7143 99.9799 63.6846 99.9354C63.6697 99.876 63.6623 99.8166 63.6623 99.7572L63.5955 99.334C63.5806 99.2597 63.5658 99.1855 63.5509 99.1112C63.5509 99.0222 63.5435 98.9405 63.5287 98.8662L63.3059 97.5744C63.2911 97.4704 63.2762 97.3739 63.2614 97.2848C63.2465 97.1957 63.2317 97.0992 63.2168 96.9953L63.1277 96.5052C63.098 96.3419 63.0683 96.1786 63.0386 96.0152C63.0089 95.837 62.9792 95.6663 62.9495 95.5029L62.7268 94.0774C62.712 93.8695 62.6748 93.6691 62.6154 93.476C62.5709 93.2681 62.5263 93.0677 62.4818 92.8746C62.4224 92.6371 62.3556 92.4143 62.2813 92.2064C62.2071 91.9837 62.1254 91.7684 62.0363 91.5605L61.9695 91.36C61.9547 91.3155 61.9324 91.2709 61.9027 91.2264C61.873 91.1818 61.8433 91.1447 61.8136 91.115C61.769 91.115 61.7468 91.1224 61.7468 91.1373L61.6799 91.36C61.6205 91.5531 61.5686 91.761 61.524 91.9837C61.4795 92.1916 61.4275 92.3995 61.3681 92.6074C61.3384 92.7261 61.3087 92.8449 61.279 92.9637C61.2493 93.0825 61.2196 93.2013 61.1899 93.3201C61.1602 93.4241 61.1305 93.5354 61.1008 93.6542C61.086 93.7582 61.0637 93.8695 61.034 93.9883C61.0043 94.1665 60.9672 94.3447 60.9226 94.5229C60.8781 94.7011 60.841 94.8793 60.8113 95.0574C60.7964 95.1911 60.7742 95.3247 60.7445 95.4584C60.7296 95.592 60.7148 95.7257 60.6999 95.8593V95.9929C60.7296 96.1117 60.6999 96.2157 60.6108 96.3048C60.596 96.3493 60.5737 96.3939 60.544 96.4384C60.5291 96.4681 60.5143 96.5052 60.4994 96.5498C60.4697 96.6834 60.4326 96.7799 60.3881 96.8393L60.3213 96.9953C60.3064 97.0101 60.2916 97.0398 60.2767 97.0843C60.2767 97.114 60.2619 97.1437 60.2322 97.1734C60.1282 97.3516 59.9946 97.4704 59.8312 97.5298C59.7718 97.5595 59.7124 97.5892 59.653 97.6189C59.6085 97.6486 59.5565 97.6783 59.4971 97.708C59.3486 97.7823 59.1927 97.7748 59.0294 97.6857C58.8066 97.5372 58.6359 97.3739 58.5171 97.1957L58.1162 96.6166C58.1162 96.6018 58.1087 96.5943 58.0939 96.5943C58.0939 96.5795 58.0939 96.5721 58.0939 96.5721C58.0345 96.4087 57.9677 96.2602 57.8934 96.1266C57.8192 95.9929 57.7598 95.8519 57.7152 95.7034L57.448 94.9238C57.3737 94.7308 57.3069 94.5377 57.2475 94.3447C57.1881 94.1517 57.1213 93.9586 57.047 93.7656L56.9802 93.5874C56.9505 93.4538 56.9134 93.3201 56.8688 93.1865C56.8391 93.0528 56.802 92.9266 56.7575 92.8078C56.7278 92.6742 56.6907 92.548 56.6461 92.4292C56.6016 92.2955 56.5644 92.1693 56.5347 92.0505C56.4753 91.8872 56.416 91.7238 56.3566 91.5605C56.312 91.3823 56.2526 91.2115 56.1784 91.0482C56.1487 90.9443 56.1041 90.8626 56.0447 90.8032C55.9259 90.6844 55.8443 90.5433 55.7997 90.38C55.7997 90.3503 55.7849 90.3354 55.7552 90.3354L55.7106 90.38V90.4023C55.6958 90.4171 55.6883 90.4394 55.6883 90.4691C55.6735 90.6176 55.6586 90.7735 55.6438 90.9368C55.6289 91.1002 55.6067 91.2635 55.577 91.4269L55.5102 92.1619C55.4953 92.2807 55.4805 92.3995 55.4656 92.5183C55.4656 92.6371 55.4582 92.7558 55.4433 92.8746C55.4285 92.934 55.4136 92.9934 55.3988 93.0528C55.3988 93.1122 55.3988 93.179 55.3988 93.2533C55.3839 93.6245 55.3394 94.018 55.2651 94.4338C55.2503 94.5377 55.2354 94.6565 55.2206 94.7902C55.2058 94.909 55.1909 95.0278 55.1761 95.1465L55.1092 95.6366C55.0647 95.9038 55.0424 96.1637 55.0424 96.4161C55.0424 96.5201 55.0424 96.624 55.0424 96.728C55.0573 96.8319 55.0498 96.9359 55.0201 97.0398C55.0053 97.1734 55.0201 97.3294 55.0647 97.5075C55.1241 97.6115 55.1464 97.7154 55.1315 97.8194C55.1315 97.9233 55.1167 98.0347 55.087 98.1535C55.0721 98.2426 55.0424 98.3317 54.9979 98.4208C54.9682 98.5099 54.9162 98.5915 54.8419 98.6658C54.8123 98.7103 54.7751 98.7623 54.7306 98.8217C54.7009 98.8811 54.6638 98.9331 54.6192 98.9776C54.5004 99.1261 54.441 99.2894 54.441 99.4676V99.9576C54.441 100.076 54.4336 100.188 54.4188 100.292C54.4188 100.411 54.4262 100.529 54.441 100.648C54.441 100.663 54.4336 100.678 54.4188 100.693C54.4188 100.708 54.4188 100.73 54.4188 100.759C54.4039 100.804 54.3965 100.849 54.3965 100.893C54.3965 100.938 54.3965 100.982 54.3965 101.027C54.4113 101.16 54.3965 101.301 54.3519 101.45C54.2777 101.584 54.1812 101.673 54.0624 101.717C54.0327 101.732 54.003 101.74 53.9733 101.74ZM71.4201 103.009C71.2122 103.098 71.0415 103.031 70.9078 102.809C70.8336 102.705 70.7816 102.564 70.7519 102.385C70.7371 102.252 70.7148 102.118 70.6851 101.985C70.6554 101.851 70.6257 101.71 70.596 101.561C70.5811 101.502 70.5589 101.443 70.5292 101.383C70.5143 101.324 70.4921 101.264 70.4624 101.205C70.4178 101.116 70.3733 101.027 70.3287 100.938C70.2842 100.849 70.2322 100.767 70.1728 100.693C70.1134 100.574 70.0763 100.492 70.0614 100.448L69.9501 100.203C69.861 99.9948 69.8164 99.7795 69.8164 99.5567C69.8016 99.4528 69.7941 99.3488 69.7941 99.2449C69.809 99.1409 69.8238 99.037 69.8387 98.9331C69.8832 98.6658 69.8758 98.4208 69.8164 98.198L69.616 97.1957C69.6011 97.1066 69.5863 97.0175 69.5714 96.9284C69.5566 96.8245 69.5417 96.7205 69.5269 96.6166L69.46 96.3048C69.4452 96.1711 69.4303 96.0375 69.4155 95.9038C69.4006 95.7702 69.3858 95.644 69.3709 95.5252C69.3561 95.4806 69.3487 95.4361 69.3487 95.3916C69.3487 95.347 69.3487 95.3025 69.3487 95.2579C69.3487 95.0946 69.2967 94.9535 69.1928 94.8347C69.1334 94.7605 69.074 94.6862 69.0146 94.612C68.97 94.5229 68.9329 94.4412 68.9032 94.367C68.8438 94.2779 68.7844 94.1962 68.725 94.122C68.6805 94.0329 68.6359 93.9438 68.5914 93.8547C68.5468 93.7656 68.4726 93.7136 68.3686 93.6988C68.2795 93.6839 68.1979 93.6468 68.1236 93.5874C68.0197 93.4983 67.9232 93.4018 67.8341 93.2978C67.8044 93.2384 67.7747 93.1939 67.745 93.1642C67.7004 93.1048 67.6856 93.0454 67.7004 92.986C67.7301 92.9415 67.7301 92.8969 67.7004 92.8524C67.6559 92.7781 67.641 92.7113 67.6559 92.6519C67.6707 92.5925 67.6856 92.5331 67.7004 92.4737C67.7004 92.4143 67.7153 92.3623 67.745 92.3178C67.7747 92.2732 67.8044 92.2287 67.8341 92.1842C67.8935 92.0951 67.9603 92.0208 68.0345 91.9614C68.1236 91.8872 68.2127 91.8204 68.3018 91.761C68.3612 91.7313 68.4058 91.7016 68.4355 91.6719C68.5097 91.6422 68.532 91.5976 68.5023 91.5382V91.4714C68.4726 91.3081 68.4429 91.1521 68.4132 91.0037C68.3835 90.8552 68.3464 90.7067 68.3018 90.5582C68.287 90.4839 68.2647 90.4097 68.235 90.3354C68.2201 90.2612 68.1979 90.187 68.1682 90.1127C68.1533 90.0979 68.1459 90.0682 68.1459 90.0236C68.1459 89.9494 68.1385 89.8751 68.1236 89.8009C68.1088 89.7266 68.0939 89.6598 68.0791 89.6004C68.0345 89.244 67.9677 88.8877 67.8786 88.5313C67.8638 88.4273 67.8266 88.3234 67.7673 88.2195C67.7079 88.0858 67.6707 87.967 67.6559 87.8631C67.6113 87.6997 67.5668 87.5438 67.5222 87.3953C67.4777 87.232 67.4406 87.0761 67.4109 86.9276C67.3663 86.7791 67.3292 86.6306 67.2995 86.4821C67.2847 86.3336 67.2698 86.1851 67.255 86.0366C67.2401 85.6803 67.3663 85.3907 67.6336 85.168L67.7004 85.1012C67.8192 84.9972 67.938 84.9304 68.0568 84.9007C68.1904 84.8561 68.3315 84.8339 68.48 84.8339C68.6136 84.8487 68.7324 84.8413 68.8364 84.8116C68.9552 84.767 69.0665 84.7151 69.1705 84.6557C69.2002 84.6408 69.2447 84.6334 69.3041 84.6334H69.3709C69.4155 84.6334 69.4526 84.6408 69.4823 84.6557C69.5269 84.6854 69.5788 84.6705 69.6382 84.6111C69.6531 84.5963 69.6754 84.6037 69.7051 84.6334C69.7348 84.678 69.7719 84.7002 69.8164 84.7002C69.8461 84.7151 69.8758 84.7225 69.9055 84.7225C69.9501 84.7225 69.9946 84.7373 70.0392 84.767C70.0689 84.7819 70.0986 84.8042 70.1283 84.8339C70.1728 84.8636 70.2025 84.9081 70.2173 84.9675L70.2842 85.0343C70.3287 85.0492 70.3658 85.0863 70.3955 85.1457C70.4104 85.2051 70.4624 85.2348 70.5515 85.2348C70.596 85.2348 70.6628 85.2199 70.7519 85.1902C70.9153 85.1605 71.0712 85.1308 71.2197 85.1012C71.383 85.0715 71.5389 85.0492 71.6874 85.0343C71.732 85.0195 71.7839 85.0121 71.8433 85.0121C72.1403 84.9972 72.4373 84.9675 72.7343 84.923C73.0312 84.8784 73.3208 84.8264 73.6029 84.767L73.7143 84.7225C74.0113 84.678 74.2934 84.5889 74.5607 84.4552C74.6646 84.3958 74.776 84.3438 74.8948 84.2993C75.0136 84.2548 75.125 84.2102 75.2289 84.1657L75.9862 83.8984C76.0902 83.8687 76.157 83.839 76.1867 83.8093C76.2758 83.735 76.3574 83.6831 76.4317 83.6534C76.6247 83.5346 76.84 83.4603 77.0776 83.4306C77.2113 83.4306 77.3449 83.4529 77.4785 83.4975C77.6864 83.5865 77.8795 83.7276 78.0577 83.9207C78.1022 83.9949 78.117 84.0766 78.1022 84.1657C78.0577 84.2548 78.0577 84.3513 78.1022 84.4552C78.117 84.5443 78.117 84.6186 78.1022 84.678C78.0874 84.7373 78.0799 84.7967 78.0799 84.8561C78.0799 84.9155 78.0725 84.9749 78.0577 85.0343C78.0577 85.1086 78.0354 85.168 77.9908 85.2125C77.8869 85.361 77.7829 85.4724 77.679 85.5466C77.6642 85.5615 77.6493 85.5763 77.6345 85.5912C77.6345 85.606 77.6196 85.6283 77.5899 85.658C77.5751 85.6728 77.5602 85.6877 77.5454 85.7025C77.5454 85.7174 77.5305 85.7397 77.5008 85.7694C77.4266 85.8288 77.3597 85.8956 77.3004 85.9698C77.2558 86.0441 77.2038 86.1183 77.1444 86.1926C77.085 86.2965 77.0108 86.4004 76.9217 86.5044C76.8475 86.5935 76.7584 86.6752 76.6544 86.7494L76.4762 86.9499C76.3871 87.0687 76.3352 87.18 76.3203 87.284C76.2906 87.4176 76.2609 87.5512 76.2312 87.6849C76.2164 87.8037 76.2089 87.9299 76.2089 88.0635L76.1421 88.5313C76.1421 88.5907 76.1273 88.6501 76.0976 88.7095C76.0382 88.858 75.9194 88.9322 75.7412 88.9322C75.7263 88.9471 75.7041 88.9545 75.6744 88.9545C75.6595 88.9396 75.6447 88.9322 75.6298 88.9322C75.4962 88.858 75.4071 88.7614 75.3625 88.6427C75.3032 88.4496 75.2586 88.2343 75.2289 87.9967C75.2289 87.9225 75.2215 87.8482 75.2066 87.774C75.2066 87.6849 75.1992 87.6032 75.1844 87.529L75.1175 87.3731C75.0878 87.2691 75.0284 87.2468 74.9393 87.3062C74.9245 87.3062 74.9022 87.3137 74.8725 87.3285C74.8577 87.3434 74.8354 87.3582 74.8057 87.3731C74.7463 87.4028 74.6869 87.4399 74.6275 87.4844C74.583 87.5141 74.5384 87.5512 74.4939 87.5958C74.3602 87.67 74.1969 87.7443 74.0039 87.8185C73.7366 87.9076 73.4916 88.0413 73.2688 88.2195C73.2391 88.2343 73.202 88.2566 73.1575 88.2863C73.1278 88.316 73.0906 88.3457 73.0461 88.3754C73.0015 88.4051 72.957 88.4348 72.9125 88.4645C72.8679 88.4942 72.8159 88.5239 72.7565 88.5536L72.6006 88.6427C72.5561 88.6724 72.5041 88.7317 72.4447 88.8208C72.4299 88.8951 72.4076 88.9768 72.3779 89.0659C72.363 89.1401 72.3556 89.2218 72.3556 89.3109C72.3556 89.4445 72.3482 89.5781 72.3333 89.7118C72.3333 89.8454 72.3408 89.9791 72.3556 90.1127C72.3556 90.187 72.3556 90.2686 72.3556 90.3577C72.3556 90.432 72.3408 90.5062 72.3111 90.5805C72.2814 90.6844 72.3185 90.7215 72.4224 90.6918C72.4967 90.6918 72.5561 90.6844 72.6006 90.6696C72.764 90.6399 72.9273 90.6176 73.0906 90.6027C73.2688 90.573 73.4322 90.5433 73.5807 90.5136L74.0707 90.4468C74.1449 90.432 74.2043 90.4171 74.2489 90.4023C74.3083 90.3874 74.3677 90.3651 74.4271 90.3354C74.5162 90.2761 74.6052 90.2389 74.6943 90.2241C74.7834 90.2092 74.8725 90.1944 74.9616 90.1795C75.1547 90.135 75.3477 90.1721 75.5407 90.2909L75.8303 90.4914C75.8897 90.5508 75.9194 90.6102 75.9194 90.6696C75.9491 90.7735 75.9862 90.8255 76.0308 90.8255C76.0753 90.8106 76.105 90.8106 76.1198 90.8255C76.1644 90.8849 76.2015 90.9517 76.2312 91.0259C76.2758 91.0853 76.3055 91.1521 76.3203 91.2264C76.3203 91.2858 76.298 91.3229 76.2535 91.3378C76.1941 91.3378 76.1495 91.36 76.1198 91.4046C76.0902 91.4491 76.0605 91.4937 76.0308 91.5382C76.0159 91.5531 76.0085 91.5679 76.0085 91.5828C76.0233 91.5976 76.0308 91.6125 76.0308 91.6273C76.0605 91.6719 76.0605 91.7238 76.0308 91.7832C76.0159 91.8129 76.0011 91.8501 75.9862 91.8946C75.9714 91.9243 75.9565 91.954 75.9417 91.9837C75.8823 92.1173 75.7932 92.2287 75.6744 92.3178C75.615 92.3772 75.563 92.4217 75.5185 92.4514C75.3997 92.5257 75.2883 92.6593 75.1844 92.8524C75.1695 92.8821 75.1547 92.9192 75.1398 92.9637C75.125 92.9934 75.1027 93.0306 75.073 93.0751C75.0284 93.1345 74.9616 93.179 74.8725 93.2087C74.724 93.2384 74.6052 93.231 74.5162 93.1865L74.3825 93.1196C74.2934 93.0899 74.2192 93.0974 74.1598 93.1419C74.1449 93.1568 74.1078 93.179 74.0484 93.2087C73.9148 93.2681 73.7663 93.2756 73.6029 93.231C73.5287 93.2013 73.447 93.1642 73.3579 93.1196C73.2837 93.0751 73.2094 93.038 73.1352 93.0083C73.1055 92.9934 73.0758 92.9712 73.0461 92.9415C72.9867 92.8969 72.9199 92.8895 72.8456 92.9192C72.7565 92.934 72.6674 92.9563 72.5783 92.986C72.4893 93.0009 72.4002 93.0231 72.3111 93.0528C72.1774 93.0677 72.0289 93.1122 71.8656 93.1865C71.821 93.1865 71.7765 93.2087 71.732 93.2533C71.6577 93.3127 71.628 93.3795 71.6429 93.4538V93.4983C71.6874 93.6319 71.7171 93.7656 71.732 93.8992C71.7616 94.0329 71.7839 94.1665 71.7988 94.3001L71.9324 95.2356C71.9324 95.2505 71.9324 95.2653 71.9324 95.2802C71.9473 95.2802 71.9547 95.2802 71.9547 95.2802C71.9547 95.4435 71.9621 95.6069 71.977 95.7702C71.9918 95.9335 71.9992 96.0969 71.9992 96.2602C71.9992 96.4533 71.9992 96.6389 71.9992 96.8171C72.0141 96.9953 72.0215 97.1734 72.0215 97.3516V97.6189C72.0512 97.6783 72.0958 97.708 72.1551 97.708L72.4447 97.6412C72.519 97.6263 72.5858 97.6115 72.6452 97.5966C72.7194 97.5818 72.7862 97.5669 72.8456 97.5521L73.2466 97.4853C73.3357 97.4853 73.4025 97.4778 73.447 97.463C73.6401 97.4333 73.8331 97.3962 74.0261 97.3516C74.2192 97.3071 74.4122 97.27 74.6052 97.2403C74.6943 97.2254 74.7834 97.2106 74.8725 97.1957C74.9765 97.1809 75.0804 97.166 75.1844 97.1512C75.3477 97.1363 75.5036 97.1215 75.6521 97.1066C75.8154 97.0769 75.9714 97.0546 76.1198 97.0398C76.1941 97.025 76.2609 97.0175 76.3203 97.0175C76.3946 97.0027 76.4614 96.9953 76.5208 96.9953C76.6099 96.9656 76.6767 96.9359 76.7212 96.9062C76.7509 96.8765 76.7806 96.8542 76.8103 96.8393C76.8549 96.8245 76.8846 96.8096 76.8994 96.7948C77.0331 96.676 77.1816 96.6315 77.3449 96.6611C77.3894 96.6611 77.4266 96.6537 77.4563 96.6389C77.486 96.6389 77.5231 96.6389 77.5676 96.6389C77.6122 96.6389 77.6493 96.6463 77.679 96.6611C77.7532 96.6908 77.8201 96.7205 77.8795 96.7502C77.9389 96.7651 77.9983 96.7948 78.0577 96.8393C78.0725 96.8542 78.0874 96.8616 78.1022 96.8616C78.221 96.9359 78.3398 96.9433 78.4586 96.8839C78.5031 96.8542 78.5551 96.8319 78.6145 96.8171C78.6739 96.7874 78.7333 96.7651 78.7927 96.7502C78.9412 96.7057 79.0897 96.7057 79.2382 96.7502C79.2827 96.7651 79.3272 96.7799 79.3718 96.7948C79.4312 96.8096 79.4757 96.8319 79.5054 96.8616C79.5945 96.9062 79.6762 96.9804 79.7504 97.0843C79.8841 97.2774 79.9732 97.4778 80.0177 97.6857C80.0474 97.7303 80.0474 97.7748 80.0177 97.8194C80.0029 97.8639 79.988 97.9085 79.9732 97.953C79.9583 97.9827 79.9435 98.0198 79.9286 98.0644C79.9138 98.0941 79.8989 98.1312 79.8841 98.1758C79.8692 98.2055 79.8544 98.2351 79.8395 98.2648C79.8395 98.3242 79.8098 98.3688 79.7504 98.3985C79.691 98.4133 79.6465 98.4579 79.6168 98.5321C79.5871 98.5915 79.55 98.6064 79.5054 98.5767C79.446 98.5767 79.4089 98.5841 79.3941 98.599C79.3198 98.6583 79.2382 98.7029 79.1491 98.7326C79.06 98.7623 78.9709 98.792 78.8818 98.8217C78.7184 98.8514 78.5551 98.8959 78.3918 98.9553C78.2284 98.9999 78.0651 99.0444 77.9017 99.089C77.8126 99.1187 77.7458 99.1335 77.7013 99.1335C77.6122 99.1484 77.5231 99.1706 77.434 99.2003C77.3597 99.2152 77.2855 99.2375 77.2113 99.2672C77.1964 99.282 77.1741 99.2894 77.1444 99.2894C77.1296 99.2894 77.1073 99.2969 77.0776 99.3117C76.9737 99.3266 76.8623 99.3488 76.7435 99.3785C76.6396 99.4082 76.5356 99.4453 76.4317 99.4899C76.3871 99.5196 76.3203 99.5344 76.2312 99.5344C76.1124 99.5344 75.9862 99.5567 75.8526 99.6013C75.7041 99.631 75.5556 99.6607 75.4071 99.6904C75.2586 99.7052 75.1027 99.7275 74.9393 99.7572L74.4716 99.824C74.2786 99.8685 74.1078 99.9205 73.9593 99.9799C73.9296 99.9948 73.8925 100.01 73.8479 100.024C73.8034 100.039 73.7663 100.054 73.7366 100.069C73.4247 100.128 73.1352 100.24 72.8679 100.403L72.6897 100.47C72.5709 100.485 72.4521 100.522 72.3333 100.581C72.2294 100.641 72.118 100.7 71.9992 100.759C71.9101 100.819 71.8507 100.863 71.821 100.893C71.7913 100.923 71.7616 100.967 71.732 101.027C71.6577 101.205 71.6206 101.361 71.6206 101.495C71.6354 101.598 71.6429 101.695 71.6429 101.784C71.6429 101.888 71.6503 101.999 71.6651 102.118C71.6948 102.296 71.6874 102.46 71.6429 102.608C71.6429 102.668 71.628 102.742 71.5983 102.831C71.5389 102.92 71.4795 102.979 71.4201 103.009ZM71.4201 90.8923C71.4795 90.8626 71.5092 90.818 71.5092 90.7586C71.4944 90.7289 71.4869 90.6992 71.4869 90.6696C71.4869 90.625 71.4795 90.5879 71.4647 90.5582C71.3904 90.3651 71.3533 90.1944 71.3533 90.0459C71.3533 90.0162 71.3459 89.9939 71.331 89.9791C71.331 89.9642 71.331 89.9494 71.331 89.9345C71.3013 89.9048 71.2865 89.89 71.2865 89.89V89.9345C71.2716 90.0088 71.2568 90.0904 71.2419 90.1795C71.2419 90.2686 71.2419 90.3577 71.2419 90.4468V90.8032C71.2716 90.8477 71.3013 90.87 71.331 90.87C71.3459 90.8849 71.3756 90.8923 71.4201 90.8923ZM88 99.9354C87.807 99.9799 87.6065 99.9651 87.3986 99.8908C87.3392 99.876 87.2873 99.8537 87.2427 99.824C87.213 99.7943 87.1759 99.7646 87.1314 99.7349C87.0274 99.6607 86.9457 99.5493 86.8863 99.4008L86.7973 99.1112C86.7973 99.0815 86.7898 99.0593 86.775 99.0444C86.775 99.0147 86.775 98.9925 86.775 98.9776C86.775 98.7697 86.7601 98.5693 86.7304 98.3762C86.7007 98.1683 86.671 97.9679 86.6413 97.7748C86.6116 97.6263 86.5819 97.4778 86.5522 97.3294C86.5374 97.1809 86.5151 97.0324 86.4854 96.8839C86.4854 96.8542 86.478 96.8319 86.4631 96.8171C86.4631 96.8022 86.4631 96.7874 86.4631 96.7725C86.4335 96.5943 86.4038 96.4161 86.3741 96.238C86.3444 96.0598 86.3147 95.889 86.285 95.7257C86.2701 95.6366 86.2553 95.5475 86.2404 95.4584C86.2404 95.3693 86.2256 95.2802 86.1959 95.1911L86.0622 94.2111C86.0474 94.0774 86.0251 93.9438 85.9954 93.8101C85.9806 93.6616 85.9583 93.5131 85.9286 93.3647C85.9137 93.2162 85.8915 93.0751 85.8618 92.9415C85.8321 92.793 85.8024 92.6519 85.7727 92.5183L85.4386 91.0482C85.4089 90.8849 85.3792 90.7215 85.3495 90.5582C85.3198 90.3948 85.2826 90.2389 85.2381 90.0904C85.1936 89.9568 85.1564 89.8232 85.1267 89.6895C85.097 89.541 85.0525 89.4 84.9931 89.2663L84.9708 89.1772C84.9263 88.9842 84.8669 88.7986 84.7926 88.6204C84.7332 88.4422 84.6664 88.264 84.5922 88.0858C84.5922 88.071 84.5847 88.0635 84.5699 88.0635C84.5699 88.0487 84.5699 88.0413 84.5699 88.0413C84.5402 87.9522 84.4882 87.9225 84.414 87.9522C84.3991 87.967 84.3769 87.9744 84.3472 87.9744C84.2878 87.9893 84.2284 88.0116 84.169 88.0413C84.1244 88.071 84.0724 88.1007 84.0131 88.1304C83.8646 88.1749 83.7383 88.2417 83.6344 88.3308L83.033 88.754C82.9439 88.7986 82.8623 88.858 82.788 88.9322C82.7286 89.0065 82.6692 89.0807 82.6098 89.1549C82.5653 89.2143 82.543 89.2812 82.543 89.3554L82.4762 89.7563C82.4613 89.9048 82.4465 90.0607 82.4316 90.2241C82.4168 90.3874 82.4019 90.5508 82.3871 90.7141C82.3722 90.8626 82.35 91.0037 82.3203 91.1373C82.3054 91.2561 82.298 91.3897 82.298 91.5382C82.298 91.657 82.2757 91.7832 82.2312 91.9169C82.1866 92.0802 82.0753 92.1842 81.8971 92.2287C81.7634 92.2436 81.6521 92.199 81.563 92.0951C81.4887 92.0208 81.4367 91.9094 81.407 91.761C81.3922 91.657 81.3773 91.5605 81.3625 91.4714C81.3476 91.3823 81.3402 91.2858 81.3402 91.1818V90.5136C81.3402 90.38 81.3328 90.2538 81.3179 90.135C81.3179 90.0162 81.3254 89.9048 81.3402 89.8009C81.3402 89.5484 81.2808 89.3034 81.162 89.0659L80.8279 88.3754C80.7685 88.2566 80.7166 88.1007 80.672 87.9076C80.6275 87.6997 80.6052 87.529 80.6052 87.3953C80.6349 87.0538 80.7611 86.7717 80.9838 86.5489C81.1769 86.3559 81.3996 86.2297 81.6521 86.1703C81.7411 86.1406 81.8599 86.1109 82.0084 86.0812L83.1889 85.8807C83.3077 85.8659 83.4191 85.851 83.523 85.8362C83.6418 85.8065 83.7532 85.7842 83.8571 85.7694C84.0799 85.7397 84.3026 85.71 84.5253 85.6803C84.7629 85.6506 85.0005 85.6283 85.2381 85.6134C85.3717 85.5986 85.5054 85.5837 85.639 85.5689C85.7727 85.554 85.9063 85.5392 86.04 85.5244H86.129C86.2627 85.5095 86.3889 85.5021 86.5077 85.5021C86.6413 85.4872 86.775 85.4724 86.9086 85.4575C86.9829 85.4427 87.0571 85.4353 87.1314 85.4353C87.2056 85.4353 87.2724 85.4278 87.3318 85.413C87.3467 85.3981 87.3764 85.3907 87.4209 85.3907L88.245 85.3239C88.4084 85.309 88.5643 85.2942 88.7128 85.2793C88.8761 85.2645 89.0395 85.2496 89.2028 85.2348C89.3364 85.2199 89.4701 85.2051 89.6037 85.1902C89.7374 85.1605 89.871 85.116 90.0047 85.0566C90.1383 84.9972 90.2719 84.9824 90.4056 85.0121C90.5541 85.0269 90.6877 85.064 90.8065 85.1234C90.851 85.1383 90.8882 85.168 90.9179 85.2125C90.9624 85.2422 90.9995 85.2719 91.0292 85.3016C91.1035 85.3759 91.1629 85.465 91.2074 85.5689C91.252 85.658 91.2965 85.7471 91.3411 85.8362C91.3856 85.9253 91.3856 86.0144 91.3411 86.1035C91.3114 86.1629 91.2891 86.2297 91.2742 86.3039C91.2742 86.3633 91.2668 86.4301 91.252 86.5044C91.252 86.5786 91.2297 86.638 91.1852 86.6826C91.1555 86.6974 91.1258 86.7197 91.0961 86.7494C91.0664 86.7791 91.0367 86.8088 91.007 86.8385C90.9624 86.8533 90.9179 86.8979 90.8733 86.9721C90.7842 87.0909 90.658 87.1503 90.4947 87.1503C90.4353 87.1503 90.3759 87.1577 90.3165 87.1726C90.2719 87.1874 90.22 87.2023 90.1606 87.2171C90.0269 87.2468 89.9378 87.2914 89.8933 87.3508C89.819 87.425 89.7374 87.4622 89.6483 87.4622C89.5443 87.4919 89.4627 87.4622 89.4033 87.3731C89.3884 87.3285 89.3513 87.3062 89.2919 87.3062C89.2325 87.3211 89.1657 87.3285 89.0914 87.3285C89.032 87.3285 88.9726 87.3285 88.9132 87.3285C88.8538 87.3434 88.787 87.3508 88.7128 87.3508C88.6534 87.3508 88.5866 87.3582 88.5123 87.3731C88.4529 87.3731 88.401 87.3805 88.3564 87.3953C88.3119 87.3953 88.2599 87.3953 88.2005 87.3953C88.052 87.4102 87.8961 87.425 87.7327 87.4399C87.5843 87.4547 87.4283 87.4696 87.265 87.4844C87.1759 87.4844 87.1091 87.4919 87.0645 87.5067C87.0051 87.5364 86.9754 87.5809 86.9754 87.6403C86.9606 87.6997 86.9606 87.774 86.9754 87.8631L87.1091 88.5536C87.1388 88.6872 87.1685 88.8283 87.1982 88.9768C87.2279 89.1104 87.2576 89.2515 87.2873 89.4L87.3541 89.89C87.3541 89.9494 87.3541 90.0088 87.3541 90.0682C87.3689 90.1127 87.3838 90.1647 87.3986 90.2241C87.4283 90.4023 87.458 90.5805 87.4877 90.7586C87.5323 90.9368 87.562 91.115 87.5768 91.2932L87.5991 91.3823C87.6585 91.5753 87.703 91.7684 87.7327 91.9614C87.7624 92.1545 87.7921 92.3549 87.8218 92.5628C87.8515 92.6964 87.8812 92.8375 87.9109 92.986C87.9406 93.1196 87.9629 93.2533 87.9778 93.3869C87.9926 93.4909 88.0075 93.5948 88.0223 93.6988C88.0372 93.7879 88.052 93.8844 88.0668 93.9883V94.0997C88.0817 94.2185 88.0965 94.3373 88.1114 94.4561C88.1411 94.56 88.1634 94.6714 88.1782 94.7902L88.245 95.4584C88.2599 95.5623 88.2747 95.6663 88.2896 95.7702C88.3044 95.8741 88.3193 95.9855 88.3341 96.1043C88.3341 96.134 88.3341 96.1711 88.3341 96.2157C88.349 96.2454 88.3564 96.2751 88.3564 96.3048C88.3564 96.379 88.3638 96.4607 88.3787 96.5498C88.3935 96.624 88.4084 96.7057 88.4232 96.7948C88.4529 96.9581 88.4826 97.1289 88.5123 97.3071C88.542 97.4704 88.5717 97.6412 88.6014 97.8194C88.6163 97.9233 88.6385 98.0273 88.6682 98.1312C88.6979 98.2203 88.7202 98.3168 88.7351 98.4208C88.7499 98.495 88.7945 98.5693 88.8687 98.6435C88.9281 98.688 88.9429 98.74 88.9132 98.7994C88.8687 98.8588 88.839 98.9256 88.8242 98.9999C88.8242 99.0741 88.8167 99.1484 88.8019 99.2226C88.8019 99.282 88.7945 99.3266 88.7796 99.3563C88.7796 99.4305 88.7499 99.4825 88.6905 99.5122C88.6311 99.5419 88.5717 99.6013 88.5123 99.6904C88.4381 99.7646 88.3787 99.8166 88.3341 99.8463C88.2896 99.8908 88.2302 99.9131 88.1559 99.9131C88.1262 99.8982 88.0743 99.9057 88 99.9354ZM97.235 111.228C97.1459 111.228 97.0717 111.191 97.0123 111.117C96.9529 111.057 96.9084 110.998 96.8787 110.939C96.8341 110.82 96.8118 110.708 96.8118 110.604C96.797 110.486 96.7821 110.359 96.7673 110.226C96.7673 110.107 96.7599 109.981 96.745 109.847C96.745 109.61 96.7227 109.379 96.6782 109.157C96.6782 109.068 96.6708 108.978 96.6559 108.889C96.6411 108.8 96.6337 108.711 96.6337 108.622C96.6485 108.592 96.6485 108.555 96.6337 108.511C96.6337 108.481 96.6337 108.444 96.6337 108.399C96.6188 108.325 96.6114 108.251 96.6114 108.177C96.6114 108.117 96.6114 108.058 96.6114 107.998C96.5965 107.939 96.5891 107.865 96.5891 107.776C96.5446 107.627 96.5371 107.479 96.5668 107.33C96.5965 107.107 96.5891 106.922 96.5446 106.773C96.5297 106.669 96.5223 106.573 96.5223 106.484C96.5223 106.395 96.5223 106.306 96.5223 106.217C96.5074 106.127 96.5 106.038 96.5 105.949C96.5 105.86 96.5 105.771 96.5 105.682V105.504C96.5 105.474 96.4926 105.437 96.4777 105.392C96.4777 105.363 96.4777 105.326 96.4777 105.281C96.4777 105.147 96.4777 105.014 96.4777 104.88C96.4777 104.746 96.4629 104.613 96.4332 104.479C96.4183 104.375 96.4109 104.271 96.4109 104.167C96.4258 104.078 96.4332 103.989 96.4332 103.9V103.276C96.4332 103.202 96.4332 103.12 96.4332 103.031C96.4332 102.957 96.4406 102.883 96.4555 102.809C96.4703 102.734 96.4703 102.66 96.4555 102.586C96.4555 102.527 96.4555 102.467 96.4555 102.408C96.4555 102.333 96.448 102.267 96.4332 102.207C96.4332 102.148 96.4406 102.088 96.4555 102.029C96.4258 101.702 96.3812 101.398 96.3218 101.116L96.255 101.005C96.1956 100.93 96.1362 100.849 96.0768 100.759C96.0323 100.67 95.9729 100.589 95.8986 100.514C95.6759 100.262 95.4754 99.9948 95.2972 99.7126C95.2527 99.6681 95.2156 99.6235 95.1859 99.579C95.1562 99.5196 95.1265 99.4602 95.0968 99.4008C95.0671 99.3414 95.0374 99.2894 95.0077 99.2449C94.978 99.1855 94.9483 99.1261 94.9186 99.0667C94.8592 98.9479 94.7998 98.8365 94.7404 98.7326C94.681 98.6287 94.629 98.5247 94.5845 98.4208C94.5251 98.2871 94.4731 98.1535 94.4286 98.0198C94.3989 97.8862 94.3469 97.76 94.2727 97.6412C94.2578 97.6263 94.2504 97.6189 94.2504 97.6189C94.2504 97.6041 94.2504 97.5966 94.2504 97.5966C94.1613 97.2848 94.0499 97.0027 93.9163 96.7502C93.9014 96.676 93.8792 96.6092 93.8495 96.5498C93.8346 96.4755 93.8198 96.4013 93.8049 96.327C93.7901 96.2528 93.7678 96.1786 93.7381 96.1043C93.7232 96.0152 93.701 95.9335 93.6713 95.8593C93.6267 95.7108 93.5896 95.5623 93.5599 95.4138C93.5302 95.2653 93.5005 95.1168 93.4708 94.9684C93.456 94.9387 93.4485 94.8867 93.4485 94.8124C93.4485 94.6639 93.4411 94.5229 93.4263 94.3892C93.4114 94.2556 93.3891 94.1145 93.3594 93.966C93.3149 93.7433 93.2926 93.5131 93.2926 93.2756C93.2926 93.2013 93.2926 93.1271 93.2926 93.0528C93.2926 92.9786 93.2852 92.9118 93.2703 92.8524C93.2555 92.8078 93.2481 92.7633 93.2481 92.7187C93.2481 92.6593 93.2481 92.5999 93.2481 92.5405V91.8278C93.2481 91.7684 93.2481 91.7164 93.2481 91.6719C93.2481 91.6125 93.2555 91.5531 93.2703 91.4937C93.2703 91.464 93.2703 91.4417 93.2703 91.4269C93.2852 91.412 93.2926 91.3972 93.2926 91.3823C93.2778 91.219 93.2852 91.0556 93.3149 90.8923C93.3446 90.7289 93.3669 90.5656 93.3817 90.4023C93.3817 90.3132 93.3891 90.2464 93.404 90.2018C93.4337 90.0533 93.4485 89.9048 93.4485 89.7563C93.4634 89.6078 93.4708 89.4594 93.4708 89.3109V89.244C93.5005 89.1104 93.5079 88.9768 93.4931 88.8431C93.4782 88.7095 93.4708 88.5833 93.4708 88.4645C93.456 88.3457 93.4411 88.2269 93.4263 88.1081C93.4114 87.9893 93.4114 87.8705 93.4263 87.7517C93.4114 87.6329 93.404 87.5067 93.404 87.3731C93.404 87.2394 93.4114 87.1058 93.4263 86.9721C93.4263 86.8682 93.4263 86.7642 93.4263 86.6603C93.4411 86.5415 93.456 86.4301 93.4708 86.3262C93.4708 86.2074 93.4708 86.096 93.4708 85.9921C93.4857 85.8733 93.5005 85.7545 93.5154 85.6357C93.5302 85.4278 93.5747 85.2199 93.649 85.0121C93.6935 84.8487 93.7975 84.6928 93.9608 84.5443C94.0648 84.4404 94.1761 84.3587 94.2949 84.2993C94.4286 84.2399 94.5696 84.1954 94.7181 84.1657H94.8963C95.0448 84.1657 95.171 84.2102 95.275 84.2993C95.3344 84.3438 95.3863 84.3884 95.4309 84.4329C95.4903 84.4775 95.5497 84.5146 95.6091 84.5443C95.6536 84.5889 95.6833 84.626 95.6982 84.6557C95.7279 84.7002 95.7576 84.7448 95.7873 84.7893C95.817 84.819 95.8392 84.8487 95.8541 84.8784C96.0323 85.0418 96.0842 85.2274 96.01 85.4353C95.9654 85.5837 95.9432 85.7248 95.9432 85.8585C95.9283 85.9179 95.9209 85.9772 95.9209 86.0366C95.9209 86.096 95.9209 86.1554 95.9209 86.2148C95.9209 86.3336 95.9135 86.4524 95.8986 86.5712C95.8838 86.6752 95.8615 86.7865 95.8318 86.9053C95.817 86.9499 95.8095 87.0167 95.8095 87.1058C95.8095 87.2097 95.8021 87.3137 95.7873 87.4176C95.7873 87.5215 95.7798 87.6329 95.765 87.7517C95.7353 87.8854 95.7427 88.0116 95.7873 88.1304C95.817 88.1898 95.8021 88.2417 95.7427 88.2863C95.7427 88.2863 95.7353 88.2937 95.7204 88.3085C95.7204 88.3234 95.7204 88.3382 95.7204 88.3531C95.7056 88.457 95.6982 88.561 95.6982 88.6649C95.6982 88.754 95.6982 88.8505 95.6982 88.9545C95.6982 89.0881 95.6907 89.2218 95.6759 89.3554C95.6759 89.4742 95.6685 89.593 95.6536 89.7118C95.6536 89.7712 95.6536 89.8232 95.6536 89.8677C95.6536 89.9122 95.6462 89.9642 95.6313 90.0236C95.6313 90.2167 95.6239 90.4097 95.6091 90.6027C95.5942 90.7809 95.5719 90.9665 95.5422 91.1596C95.4977 91.3972 95.4903 91.6719 95.52 91.9837V92.6296C95.52 92.8078 95.5422 92.986 95.5868 93.1642C95.6165 93.2978 95.6388 93.4315 95.6536 93.5651C95.6833 93.6839 95.713 93.8027 95.7427 93.9215C95.7873 94.1442 95.8689 94.3892 95.9877 94.6565L96.1436 94.9461C96.2179 95.1391 96.307 95.3247 96.4109 95.5029C96.5297 95.6811 96.6485 95.8519 96.7673 96.0152C96.8564 96.1489 96.9529 96.2676 97.0569 96.3716L97.4578 96.7725C97.5617 96.8171 97.6508 96.8245 97.7251 96.7948L97.8364 96.7502C97.9107 96.7205 97.9849 96.6908 98.0592 96.6611C98.1334 96.6166 98.2002 96.5795 98.2596 96.5498L98.3933 96.483C98.5418 96.379 98.6457 96.2676 98.7051 96.1489C98.7496 96.0449 98.8016 95.941 98.861 95.837C98.9204 95.7034 98.9798 95.5697 99.0392 95.4361C99.1134 95.2876 99.1951 95.154 99.2842 95.0352C99.3436 94.9461 99.3956 94.8644 99.4401 94.7902C99.4995 94.7011 99.5515 94.612 99.596 94.5229C99.6406 94.4486 99.6851 94.367 99.7297 94.2779C99.7742 94.1888 99.8114 94.0923 99.8411 93.9883C99.8856 93.8547 99.9301 93.721 99.9747 93.5874C100.019 93.4389 100.056 93.2904 100.086 93.1419C100.131 92.934 100.153 92.7336 100.153 92.5405V92.0505C100.138 91.8426 100.123 91.6273 100.108 91.4046C100.108 91.167 100.101 90.9071 100.086 90.625C100.086 90.5359 100.079 90.4245 100.064 90.2909C100.049 90.1424 100.042 89.9939 100.042 89.8454C100.042 89.7118 100.034 89.5781 100.019 89.4445C100.019 89.3109 100.012 89.1772 99.997 89.0436C99.9821 88.7911 99.9598 88.5461 99.9301 88.3085C99.9153 88.071 99.893 87.8334 99.8633 87.5958C99.8633 87.5661 99.8559 87.5438 99.8411 87.529C99.8411 87.4993 99.8411 87.477 99.8411 87.4622C99.8411 87.3137 99.8336 87.1726 99.8188 87.039C99.8039 86.9053 99.7965 86.7642 99.7965 86.6158L99.7074 86.1257C99.6926 86.0218 99.6703 85.9253 99.6406 85.8362C99.6257 85.7471 99.6035 85.6506 99.5738 85.5466C99.5589 85.309 99.6109 85.064 99.7297 84.8116C99.8485 84.5592 100.027 84.381 100.264 84.277C100.368 84.2325 100.472 84.1954 100.576 84.1657C100.68 84.1211 100.784 84.0988 100.888 84.0988C101.125 84.0988 101.333 84.1434 101.512 84.2325C101.705 84.3216 101.861 84.4701 101.979 84.678C102.009 84.7225 102.039 84.8042 102.068 84.923C102.098 84.9972 102.113 85.0789 102.113 85.168C102.113 85.2422 102.113 85.3165 102.113 85.3907C102.128 85.5392 102.135 85.7025 102.135 85.8807C102.15 86.0441 102.165 86.2074 102.18 86.3707V86.5935C102.18 86.6826 102.18 86.7717 102.18 86.8608C102.195 86.9499 102.209 87.0464 102.224 87.1503C102.239 87.2097 102.247 87.2765 102.247 87.3508C102.247 87.425 102.247 87.4993 102.247 87.5735C102.247 87.6181 102.247 87.6626 102.247 87.7072C102.247 87.7517 102.254 87.7963 102.269 87.8408C102.284 87.9002 102.291 87.9596 102.291 88.019C102.291 88.0784 102.291 88.1378 102.291 88.1972C102.291 88.3011 102.291 88.4125 102.291 88.5313C102.306 88.6352 102.321 88.7466 102.336 88.8654C102.351 88.9545 102.358 89.0436 102.358 89.1327C102.358 89.2218 102.365 89.3109 102.38 89.4C102.38 89.4891 102.38 89.5781 102.38 89.6672C102.395 89.7563 102.403 89.8454 102.403 89.9345C102.403 90.0236 102.403 90.1201 102.403 90.2241C102.417 90.3132 102.432 90.4023 102.447 90.4914C102.462 90.6102 102.469 90.7364 102.469 90.87C102.469 90.9888 102.469 91.1076 102.469 91.2264C102.484 91.4194 102.484 91.6199 102.469 91.8278C102.469 92.0208 102.462 92.2213 102.447 92.4292C102.447 92.5331 102.44 92.6371 102.425 92.741C102.41 92.8301 102.403 92.9266 102.403 93.0306C102.403 93.0454 102.395 93.0603 102.38 93.0751C102.38 93.0899 102.38 93.1122 102.38 93.1419C102.351 93.2459 102.321 93.3647 102.291 93.4983C102.261 93.6171 102.232 93.7359 102.202 93.8547C102.187 93.8844 102.172 93.9215 102.158 93.966C102.158 94.0106 102.143 94.0477 102.113 94.0774C102.068 94.1814 102.031 94.2779 102.002 94.367C101.972 94.4561 101.942 94.5526 101.912 94.6565C101.883 94.7159 101.868 94.7605 101.868 94.7902C101.853 94.8644 101.831 94.9387 101.801 95.0129C101.771 95.0723 101.742 95.1391 101.712 95.2134C101.653 95.3173 101.601 95.4213 101.556 95.5252C101.512 95.6143 101.46 95.7034 101.4 95.7925C101.356 95.8519 101.311 95.9187 101.267 95.9929C101.222 96.0523 101.177 96.1117 101.133 96.1711L100.977 96.3939C100.918 96.4978 100.858 96.6092 100.799 96.728C100.739 96.8319 100.673 96.9433 100.598 97.0621C100.539 97.1512 100.465 97.2551 100.376 97.3739C100.272 97.4927 100.183 97.6412 100.108 97.8194C100.093 97.8342 100.086 97.8491 100.086 97.8639C100.086 97.8788 100.079 97.8936 100.064 97.9085C99.9598 98.0421 99.8633 98.1832 99.7742 98.3317C99.7 98.4802 99.6183 98.6287 99.5292 98.7771C99.4253 98.9553 99.3139 99.1261 99.1951 99.2894C99.0912 99.4528 98.965 99.6013 98.8165 99.7349C98.7125 99.8388 98.616 99.9576 98.5269 100.091C98.4824 100.166 98.423 100.225 98.3487 100.269C98.2745 100.344 98.2002 100.425 98.126 100.514C98.0517 100.618 97.9775 100.715 97.9033 100.804C97.829 100.953 97.7845 101.086 97.7696 101.205C97.7548 101.264 97.7399 101.331 97.7251 101.405C97.7251 101.495 97.7251 101.576 97.7251 101.65C97.7102 101.799 97.7028 101.947 97.7028 102.096C97.7028 102.259 97.7028 102.423 97.7028 102.586V103.299C97.7028 103.388 97.6954 103.477 97.6805 103.566C97.6805 103.655 97.6805 103.752 97.6805 103.856C97.6657 103.959 97.6582 104.071 97.6582 104.19C97.6582 104.308 97.6582 104.427 97.6582 104.546C97.6731 104.635 97.6731 104.717 97.6582 104.791C97.6582 104.88 97.6657 104.969 97.6805 105.058C97.6805 105.162 97.6731 105.259 97.6582 105.348C97.6582 105.452 97.6657 105.556 97.6805 105.66C97.6954 105.793 97.6954 105.912 97.6805 106.016C97.6657 106.031 97.6582 106.046 97.6582 106.061C97.6731 106.09 97.6805 106.113 97.6805 106.127C97.6954 106.291 97.6954 106.462 97.6805 106.64C97.6657 106.655 97.6582 106.662 97.6582 106.662C97.6731 106.677 97.6805 106.684 97.6805 106.684C97.6805 106.848 97.6805 107.011 97.6805 107.174C97.6954 107.352 97.7028 107.531 97.7028 107.709C97.7028 107.946 97.6954 108.184 97.6805 108.422C97.6805 108.659 97.6805 108.904 97.6805 109.157C97.6954 109.35 97.6879 109.543 97.6582 109.736C97.6434 109.929 97.636 110.122 97.636 110.315V110.56C97.6508 110.649 97.6434 110.731 97.6137 110.805C97.584 110.894 97.5543 110.976 97.5246 111.05C97.4949 111.139 97.3984 111.198 97.235 111.228ZM107.522 103.009C107.448 103.039 107.388 103.031 107.344 102.987C107.18 102.913 107.076 102.786 107.032 102.608V102.564C107.017 102.43 107.002 102.296 106.987 102.163C106.972 102.029 106.958 101.903 106.943 101.784C106.943 101.754 106.935 101.717 106.92 101.673C106.92 101.643 106.92 101.613 106.92 101.584C106.906 101.539 106.898 101.495 106.898 101.45C106.898 101.405 106.898 101.361 106.898 101.316C106.898 101.198 106.883 101.094 106.854 101.005C106.824 100.915 106.794 100.826 106.764 100.737C106.735 100.678 106.705 100.641 106.675 100.626C106.616 100.552 106.571 100.47 106.542 100.381C106.512 100.307 106.475 100.225 106.43 100.136V100.114C106.356 99.9057 106.312 99.772 106.297 99.7126C106.282 99.6384 106.274 99.4973 106.274 99.2894V98.9999C106.274 98.8514 106.319 98.7326 106.408 98.6435C106.423 98.6138 106.438 98.5841 106.453 98.5544C106.482 98.5247 106.505 98.495 106.519 98.4653C106.549 98.3762 106.549 98.3094 106.519 98.2648C106.46 98.1461 106.416 98.0273 106.386 97.9085C106.356 97.7748 106.326 97.6412 106.297 97.5075V97.2625C106.312 97.1734 106.319 97.0918 106.319 97.0175C106.334 96.9284 106.349 96.8393 106.364 96.7502C106.393 96.6166 106.393 96.4681 106.364 96.3048C106.334 96.2157 106.319 96.1489 106.319 96.1043C106.304 96.0598 106.289 96.0152 106.274 95.9707C106.274 95.9261 106.274 95.8816 106.274 95.837C106.274 95.6588 106.252 95.4955 106.208 95.347C106.178 95.2579 106.163 95.1837 106.163 95.1243C106.163 94.8867 106.148 94.6565 106.119 94.4338C106.089 94.1962 106.059 93.9586 106.029 93.721C106.029 93.6913 106.022 93.6765 106.007 93.6765C106.007 93.6616 106.007 93.6468 106.007 93.6319C106.007 93.5131 105.992 93.3944 105.963 93.2756C105.933 93.1419 105.903 93.0231 105.874 92.9192C105.859 92.8895 105.851 92.8524 105.851 92.8078C105.851 92.7633 105.844 92.7261 105.829 92.6964C105.814 92.5925 105.799 92.496 105.784 92.4069C105.784 92.3178 105.77 92.2213 105.74 92.1173V92.0282C105.725 91.8649 105.695 91.709 105.651 91.5605C105.621 91.412 105.591 91.2635 105.562 91.115C105.562 91.0556 105.554 90.9962 105.539 90.9368C105.539 90.8774 105.532 90.818 105.517 90.7586L105.45 90.5136C105.435 90.4542 105.421 90.3948 105.406 90.3354C105.406 90.2612 105.398 90.1944 105.384 90.135C105.369 90.031 105.361 89.9345 105.361 89.8454C105.361 89.7415 105.354 89.6375 105.339 89.5336C105.324 89.4297 105.309 89.3331 105.294 89.244C105.294 89.1549 105.28 89.0659 105.25 88.9768C105.235 88.858 105.22 88.7392 105.205 88.6204C105.205 88.4867 105.19 88.3605 105.161 88.2417C105.116 88.0041 105.027 87.7888 104.894 87.5958C104.611 87.18 104.493 86.7123 104.537 86.1926C104.567 86.0292 104.634 85.8807 104.738 85.7471C104.752 85.7174 104.79 85.6728 104.849 85.6134C104.953 85.4798 105.072 85.3833 105.205 85.3239C105.354 85.2496 105.51 85.2051 105.673 85.1902C105.926 85.1457 106.156 85.0789 106.364 84.9898C106.764 84.871 107.165 84.7819 107.566 84.7225C107.834 84.678 108.101 84.6557 108.368 84.6557H108.591C108.71 84.626 108.829 84.6111 108.947 84.6111C109.081 84.6111 109.207 84.6111 109.326 84.6111H109.526C109.616 84.6111 109.69 84.5814 109.749 84.522L110.016 84.3661C110.061 84.3364 110.106 84.3364 110.15 84.3661C110.195 84.3958 110.239 84.4181 110.284 84.4329C110.343 84.4478 110.395 84.4701 110.44 84.4998C110.514 84.5295 110.581 84.5592 110.64 84.5889C110.699 84.6186 110.759 84.6483 110.818 84.678C110.848 84.7077 110.885 84.7299 110.93 84.7448C110.974 84.7596 111.019 84.7745 111.063 84.7893L111.486 84.8784C111.605 84.8933 111.709 84.923 111.798 84.9675C111.902 84.9972 112.006 85.0343 112.11 85.0789C112.229 85.1234 112.333 85.1902 112.422 85.2793C112.511 85.3536 112.6 85.4427 112.689 85.5466C112.897 85.7397 113.031 85.9847 113.09 86.2817C113.105 86.4004 113.142 86.5415 113.202 86.7049C113.231 86.8088 113.246 86.9127 113.246 87.0167C113.246 87.1206 113.254 87.232 113.268 87.3508C113.268 87.3508 113.268 87.3879 113.268 87.4622C113.254 87.6255 113.231 87.7963 113.202 87.9744C113.172 88.1378 113.135 88.3011 113.09 88.4645C113.046 88.613 112.994 88.7689 112.934 88.9322C112.89 89.0955 112.83 89.2515 112.756 89.4C112.667 89.6227 112.541 89.838 112.377 90.0459C112.273 90.1795 112.17 90.3206 112.066 90.4691C111.977 90.6027 111.873 90.7364 111.754 90.87C111.694 90.9294 111.635 90.9962 111.576 91.0705C111.516 91.1299 111.457 91.1893 111.397 91.2487L111.13 91.5159V91.5605C111.13 91.5902 111.145 91.605 111.175 91.605H111.509C111.717 91.6199 111.925 91.6496 112.132 91.6941C112.34 91.7238 112.541 91.7684 112.734 91.8278C112.778 91.8426 112.815 91.8575 112.845 91.8723C112.89 91.8872 112.934 91.9094 112.979 91.9391L113.246 92.0951C113.335 92.1545 113.417 92.2139 113.491 92.2732C113.565 92.3326 113.617 92.4217 113.647 92.5405C113.677 92.6148 113.714 92.689 113.758 92.7633C113.833 92.8969 113.899 93.038 113.959 93.1865C114.018 93.3201 114.078 93.4612 114.137 93.6097C114.167 93.6691 114.189 93.7285 114.204 93.7879C114.234 93.8324 114.256 93.8844 114.271 93.9438C114.345 94.1517 114.419 94.3595 114.493 94.5674C114.568 94.7753 114.627 94.9906 114.672 95.2134L114.738 95.7702C114.768 95.8593 114.768 95.9558 114.738 96.0598C114.724 96.1489 114.709 96.238 114.694 96.327C114.679 96.4013 114.664 96.483 114.649 96.5721C114.605 96.7651 114.538 96.9507 114.449 97.1289C114.404 97.218 114.345 97.2997 114.271 97.3739C114.078 97.6115 113.877 97.7971 113.669 97.9307C113.565 97.9901 113.461 98.057 113.357 98.1312C113.268 98.2055 113.164 98.2797 113.046 98.3539C112.823 98.4876 112.57 98.6287 112.288 98.7771C112.214 98.8068 112.132 98.844 112.043 98.8885C111.969 98.9331 111.895 98.9702 111.821 98.9999C111.583 99.1038 111.353 99.2078 111.13 99.3117C110.907 99.4157 110.685 99.5122 110.462 99.6013C110.224 99.6904 109.994 99.7795 109.771 99.8685C109.549 99.9576 109.311 100.039 109.059 100.114C108.999 100.128 108.94 100.143 108.88 100.158C108.836 100.173 108.784 100.188 108.725 100.203C108.457 100.247 108.242 100.388 108.079 100.626C108.019 100.685 107.99 100.759 107.99 100.849C107.975 100.908 107.96 100.96 107.945 101.005C107.945 101.064 107.945 101.123 107.945 101.183C107.93 101.227 107.923 101.287 107.923 101.361V102.14C107.923 102.215 107.923 102.289 107.923 102.363C107.923 102.452 107.908 102.534 107.878 102.608C107.848 102.772 107.73 102.905 107.522 103.009ZM108.034 91.3155C108.049 91.3303 108.056 91.3378 108.056 91.3378C108.056 91.3229 108.064 91.3155 108.079 91.3155C108.093 91.3006 108.101 91.2932 108.101 91.2932C108.116 91.2932 108.123 91.2932 108.123 91.2932C108.197 91.3081 108.272 91.2932 108.346 91.2487C108.42 91.1893 108.494 91.1373 108.569 91.0927C108.658 91.0334 108.747 90.974 108.836 90.9146C108.97 90.8255 109.096 90.7289 109.215 90.625C109.348 90.5062 109.474 90.3874 109.593 90.2686C109.771 90.0756 109.942 89.8826 110.106 89.6895C110.269 89.4816 110.417 89.2663 110.551 89.0436C110.625 88.9099 110.699 88.7837 110.774 88.6649C110.848 88.5313 110.915 88.3902 110.974 88.2417C111.048 88.0487 111.1 87.826 111.13 87.5735C111.16 87.425 111.152 87.2914 111.108 87.1726C111.063 87.0538 110.996 86.9721 110.907 86.9276C110.64 86.8088 110.388 86.7494 110.15 86.7494C110.002 86.7494 109.861 86.7494 109.727 86.7494C109.593 86.7494 109.46 86.7568 109.326 86.7717C109.207 86.7865 109.088 86.8014 108.97 86.8162C108.851 86.8311 108.732 86.8533 108.613 86.883C108.509 86.9127 108.398 86.9499 108.279 86.9944C108.175 87.0241 108.064 87.0538 107.945 87.0835C107.782 87.128 107.678 87.2246 107.633 87.3731C107.603 87.4176 107.589 87.4844 107.589 87.5735V87.9299C107.574 88.0784 107.574 88.2269 107.589 88.3754C107.603 88.5239 107.618 88.6724 107.633 88.8208L107.655 88.8431C107.641 88.9471 107.641 89.051 107.655 89.1549C107.685 89.2589 107.707 89.3703 107.722 89.4891C107.722 89.5336 107.745 89.5707 107.789 89.6004C107.848 89.6301 107.856 89.6895 107.811 89.7786C107.811 89.7786 107.804 89.786 107.789 89.8009C107.789 89.8009 107.797 89.8083 107.811 89.8232C107.841 89.838 107.848 89.8677 107.834 89.9122C107.819 89.9419 107.811 89.9716 107.811 90.0013C107.811 90.1201 107.819 90.2018 107.834 90.2464C107.848 90.2761 107.856 90.3132 107.856 90.3577C107.856 90.4171 107.863 90.4839 107.878 90.5582C107.893 90.6176 107.908 90.677 107.923 90.7364C107.923 90.7661 107.938 90.7735 107.967 90.7586C107.982 90.7438 108.004 90.7364 108.034 90.7364C108.049 90.7364 108.056 90.7586 108.056 90.8032V90.87C107.982 90.974 107.967 91.0853 108.012 91.2041V91.2932C108.027 91.2932 108.034 91.3006 108.034 91.3155ZM108.435 98.1089C108.48 98.1089 108.524 98.1089 108.569 98.1089C108.613 98.1089 108.665 98.1015 108.725 98.0867C108.992 98.0421 109.274 97.9604 109.571 97.8416L110.44 97.4407C110.677 97.3219 110.907 97.2106 111.13 97.1066C111.353 96.9878 111.583 96.8765 111.821 96.7725C112.073 96.6389 112.303 96.4607 112.511 96.238C112.645 96.1043 112.712 95.941 112.712 95.7479V95.6366C112.697 95.6069 112.689 95.5846 112.689 95.5697C112.689 95.54 112.682 95.5103 112.667 95.4806C112.622 95.2431 112.556 95.0203 112.467 94.8124C112.392 94.5897 112.311 94.367 112.222 94.1442C112.207 94.0848 112.184 94.0329 112.155 93.9883C112.125 93.9289 112.095 93.8695 112.066 93.8101C112.021 93.721 111.962 93.6691 111.887 93.6542C111.754 93.6097 111.628 93.5874 111.509 93.5874H111.152C110.751 93.5725 110.343 93.5948 109.927 93.6542C109.512 93.7136 109.088 93.8027 108.658 93.9215L108.502 93.9883C108.487 94.0032 108.472 94.0106 108.457 94.0106C108.457 94.0106 108.45 94.018 108.435 94.0329C108.39 94.0774 108.383 94.122 108.413 94.1665L108.457 94.2111C108.502 94.2556 108.509 94.3001 108.48 94.3447C108.45 94.3892 108.435 94.4486 108.435 94.5229C108.435 94.5823 108.435 94.6417 108.435 94.7011C108.435 94.7456 108.442 94.7976 108.457 94.857C108.472 94.9164 108.48 94.9758 108.48 95.0352C108.48 95.0946 108.48 95.154 108.48 95.2134V95.4806C108.48 95.6291 108.509 95.7405 108.569 95.8148C108.598 95.8741 108.613 95.9335 108.613 95.9929C108.628 96.0523 108.635 96.1117 108.635 96.1711C108.635 96.2454 108.613 96.327 108.569 96.4161C108.524 96.4904 108.517 96.5795 108.546 96.6834C108.561 96.7131 108.584 96.7428 108.613 96.7725C108.643 96.8765 108.628 96.9581 108.569 97.0175C108.524 97.0918 108.509 97.1586 108.524 97.218C108.524 97.3071 108.517 97.3739 108.502 97.4185C108.487 97.4481 108.465 97.4853 108.435 97.5298C108.42 97.5744 108.39 97.6115 108.346 97.6412C108.272 97.7006 108.22 97.7897 108.19 97.9085C108.16 97.9679 108.145 98.0198 108.145 98.0644C108.145 98.0941 108.197 98.1015 108.301 98.0867C108.331 98.0867 108.353 98.0941 108.368 98.1089C108.398 98.1089 108.42 98.1089 108.435 98.1089ZM120.666 103.009C120.458 103.098 120.287 103.031 120.153 102.809C120.079 102.705 120.027 102.564 119.997 102.385C119.983 102.252 119.96 102.118 119.931 101.985C119.901 101.851 119.871 101.71 119.842 101.561C119.827 101.502 119.804 101.443 119.775 101.383C119.76 101.324 119.738 101.264 119.708 101.205C119.663 101.116 119.619 101.027 119.574 100.938C119.53 100.849 119.478 100.767 119.418 100.693C119.359 100.574 119.322 100.492 119.307 100.448L119.196 100.203C119.106 99.9948 119.062 99.7795 119.062 99.5567C119.047 99.4528 119.04 99.3488 119.04 99.2449C119.055 99.1409 119.069 99.037 119.084 98.9331C119.129 98.6658 119.121 98.4208 119.062 98.198L118.861 97.1957C118.847 97.1066 118.832 97.0175 118.817 96.9284C118.802 96.8245 118.787 96.7205 118.772 96.6166L118.706 96.3048C118.691 96.1711 118.676 96.0375 118.661 95.9038C118.646 95.7702 118.631 95.644 118.616 95.5252C118.602 95.4806 118.594 95.4361 118.594 95.3916C118.594 95.347 118.594 95.3025 118.594 95.2579C118.594 95.0946 118.542 94.9535 118.438 94.8347C118.379 94.7605 118.319 94.6862 118.26 94.612C118.216 94.5229 118.178 94.4412 118.149 94.367C118.089 94.2779 118.03 94.1962 117.971 94.122C117.926 94.0329 117.881 93.9438 117.837 93.8547C117.792 93.7656 117.718 93.7136 117.614 93.6988C117.525 93.6839 117.443 93.6468 117.369 93.5874C117.265 93.4983 117.169 93.4018 117.08 93.2978C117.05 93.2384 117.02 93.1939 116.991 93.1642C116.946 93.1048 116.931 93.0454 116.946 92.986C116.976 92.9415 116.976 92.8969 116.946 92.8524C116.901 92.7781 116.887 92.7113 116.901 92.6519C116.916 92.5925 116.931 92.5331 116.946 92.4737C116.946 92.4143 116.961 92.3623 116.991 92.3178C117.02 92.2732 117.05 92.2287 117.08 92.1842C117.139 92.0951 117.206 92.0208 117.28 91.9614C117.369 91.8872 117.458 91.8204 117.547 91.761C117.607 91.7313 117.651 91.7016 117.681 91.6719C117.755 91.6422 117.778 91.5976 117.748 91.5382V91.4714C117.718 91.3081 117.688 91.1521 117.659 91.0037C117.629 90.8552 117.592 90.7067 117.547 90.5582C117.532 90.4839 117.51 90.4097 117.481 90.3354C117.466 90.2612 117.443 90.187 117.414 90.1127C117.399 90.0979 117.391 90.0682 117.391 90.0236C117.391 89.9494 117.384 89.8751 117.369 89.8009C117.354 89.7266 117.339 89.6598 117.325 89.6004C117.28 89.244 117.213 88.8877 117.124 88.5313C117.109 88.4273 117.072 88.3234 117.013 88.2195C116.953 88.0858 116.916 87.967 116.901 87.8631C116.857 87.6997 116.812 87.5438 116.768 87.3953C116.723 87.232 116.686 87.0761 116.656 86.9276C116.612 86.7791 116.575 86.6306 116.545 86.4821C116.53 86.3336 116.515 86.1851 116.5 86.0366C116.486 85.6803 116.612 85.3907 116.879 85.168L116.946 85.1012C117.065 84.9972 117.184 84.9304 117.302 84.9007C117.436 84.8561 117.577 84.8339 117.726 84.8339C117.859 84.8487 117.978 84.8413 118.082 84.8116C118.201 84.767 118.312 84.7151 118.416 84.6557C118.446 84.6408 118.49 84.6334 118.55 84.6334H118.616C118.661 84.6334 118.698 84.6408 118.728 84.6557C118.772 84.6854 118.824 84.6705 118.884 84.6111C118.899 84.5963 118.921 84.6037 118.951 84.6334C118.98 84.678 119.017 84.7002 119.062 84.7002C119.092 84.7151 119.121 84.7225 119.151 84.7225C119.196 84.7225 119.24 84.7373 119.285 84.767C119.314 84.7819 119.344 84.8042 119.374 84.8339C119.418 84.8636 119.448 84.9081 119.463 84.9675L119.53 85.0343C119.574 85.0492 119.611 85.0863 119.641 85.1457C119.656 85.2051 119.708 85.2348 119.797 85.2348C119.842 85.2348 119.908 85.2199 119.997 85.1902C120.161 85.1605 120.317 85.1308 120.465 85.1012C120.629 85.0715 120.784 85.0492 120.933 85.0343C120.977 85.0195 121.029 85.0121 121.089 85.0121C121.386 84.9972 121.683 84.9675 121.98 84.923C122.277 84.8784 122.566 84.8264 122.848 84.767L122.96 84.7225C123.257 84.678 123.539 84.5889 123.806 84.4552C123.91 84.3958 124.022 84.3438 124.14 84.2993C124.259 84.2548 124.37 84.2102 124.474 84.1657L125.232 83.8984C125.336 83.8687 125.403 83.839 125.432 83.8093C125.521 83.735 125.603 83.6831 125.677 83.6534C125.87 83.5346 126.086 83.4603 126.323 83.4306C126.457 83.4306 126.59 83.4529 126.724 83.4975C126.932 83.5865 127.125 83.7276 127.303 83.9207C127.348 83.9949 127.363 84.0766 127.348 84.1657C127.303 84.2548 127.303 84.3513 127.348 84.4552C127.363 84.5443 127.363 84.6186 127.348 84.678C127.333 84.7373 127.325 84.7967 127.325 84.8561C127.325 84.9155 127.318 84.9749 127.303 85.0343C127.303 85.1086 127.281 85.168 127.236 85.2125C127.132 85.361 127.028 85.4724 126.925 85.5466C126.91 85.5615 126.895 85.5763 126.88 85.5912C126.88 85.606 126.865 85.6283 126.835 85.658C126.821 85.6728 126.806 85.6877 126.791 85.7025C126.791 85.7174 126.776 85.7397 126.746 85.7694C126.672 85.8288 126.605 85.8956 126.546 85.9698C126.501 86.0441 126.449 86.1183 126.39 86.1926C126.331 86.2965 126.256 86.4004 126.167 86.5044C126.093 86.5935 126.004 86.6752 125.9 86.7494L125.722 86.9499C125.633 87.0687 125.581 87.18 125.566 87.284C125.536 87.4176 125.506 87.5512 125.477 87.6849C125.462 87.8037 125.454 87.9299 125.454 88.0635L125.388 88.5313C125.388 88.5907 125.373 88.6501 125.343 88.7095C125.284 88.858 125.165 88.9322 124.987 88.9322C124.972 88.9471 124.95 88.9545 124.92 88.9545C124.905 88.9396 124.89 88.9322 124.875 88.9322C124.742 88.858 124.653 88.7614 124.608 88.6427C124.549 88.4496 124.504 88.2343 124.474 87.9967C124.474 87.9225 124.467 87.8482 124.452 87.774C124.452 87.6849 124.445 87.6032 124.43 87.529L124.363 87.3731C124.333 87.2691 124.274 87.2468 124.185 87.3062C124.17 87.3062 124.148 87.3137 124.118 87.3285C124.103 87.3434 124.081 87.3582 124.051 87.3731C123.992 87.4028 123.932 87.4399 123.873 87.4844C123.829 87.5141 123.784 87.5512 123.739 87.5958C123.606 87.67 123.442 87.7443 123.249 87.8185C122.982 87.9076 122.737 88.0413 122.514 88.2195C122.485 88.2343 122.448 88.2566 122.403 88.2863C122.373 88.316 122.336 88.3457 122.292 88.3754C122.247 88.4051 122.203 88.4348 122.158 88.4645C122.113 88.4942 122.061 88.5239 122.002 88.5536L121.846 88.6427C121.802 88.6724 121.75 88.7317 121.69 88.8208C121.675 88.8951 121.653 88.9768 121.623 89.0659C121.609 89.1401 121.601 89.2218 121.601 89.3109C121.601 89.4445 121.594 89.5781 121.579 89.7118C121.579 89.8454 121.586 89.9791 121.601 90.1127C121.601 90.187 121.601 90.2686 121.601 90.3577C121.601 90.432 121.586 90.5062 121.557 90.5805C121.527 90.6844 121.564 90.7215 121.668 90.6918C121.742 90.6918 121.802 90.6844 121.846 90.6696C122.009 90.6399 122.173 90.6176 122.336 90.6027C122.514 90.573 122.678 90.5433 122.826 90.5136L123.316 90.4468C123.39 90.432 123.45 90.4171 123.494 90.4023C123.554 90.3874 123.613 90.3651 123.673 90.3354C123.762 90.2761 123.851 90.2389 123.94 90.2241C124.029 90.2092 124.118 90.1944 124.207 90.1795C124.4 90.135 124.593 90.1721 124.786 90.2909L125.076 90.4914C125.135 90.5508 125.165 90.6102 125.165 90.6696C125.195 90.7735 125.232 90.8255 125.276 90.8255C125.321 90.8106 125.351 90.8106 125.365 90.8255C125.41 90.8849 125.447 90.9517 125.477 91.0259C125.521 91.0853 125.551 91.1521 125.566 91.2264C125.566 91.2858 125.544 91.3229 125.499 91.3378C125.44 91.3378 125.395 91.36 125.365 91.4046C125.336 91.4491 125.306 91.4937 125.276 91.5382C125.261 91.5531 125.254 91.5679 125.254 91.5828C125.269 91.5976 125.276 91.6125 125.276 91.6273C125.306 91.6719 125.306 91.7238 125.276 91.7832C125.261 91.8129 125.247 91.8501 125.232 91.8946C125.217 91.9243 125.202 91.954 125.187 91.9837C125.128 92.1173 125.039 92.2287 124.92 92.3178C124.861 92.3772 124.809 92.4217 124.764 92.4514C124.645 92.5257 124.534 92.6593 124.43 92.8524C124.415 92.8821 124.4 92.9192 124.385 92.9637C124.37 92.9934 124.348 93.0306 124.319 93.0751C124.274 93.1345 124.207 93.179 124.118 93.2087C123.97 93.2384 123.851 93.231 123.762 93.1865L123.628 93.1196C123.539 93.0899 123.465 93.0974 123.405 93.1419C123.39 93.1568 123.353 93.179 123.294 93.2087C123.16 93.2681 123.012 93.2756 122.848 93.231C122.774 93.2013 122.693 93.1642 122.603 93.1196C122.529 93.0751 122.455 93.038 122.381 93.0083C122.351 92.9934 122.321 92.9712 122.292 92.9415C122.232 92.8969 122.165 92.8895 122.091 92.9192C122.002 92.934 121.913 92.9563 121.824 92.986C121.735 93.0009 121.646 93.0231 121.557 93.0528C121.423 93.0677 121.274 93.1122 121.111 93.1865C121.067 93.1865 121.022 93.2087 120.977 93.2533C120.903 93.3127 120.874 93.3795 120.888 93.4538V93.4983C120.933 93.6319 120.963 93.7656 120.977 93.8992C121.007 94.0329 121.029 94.1665 121.044 94.3001L121.178 95.2356C121.178 95.2505 121.178 95.2653 121.178 95.2802C121.193 95.2802 121.2 95.2802 121.2 95.2802C121.2 95.4435 121.208 95.6069 121.222 95.7702C121.237 95.9335 121.245 96.0969 121.245 96.2602C121.245 96.4533 121.245 96.6389 121.245 96.8171C121.26 96.9953 121.267 97.1734 121.267 97.3516V97.6189C121.297 97.6783 121.341 97.708 121.401 97.708L121.69 97.6412C121.764 97.6263 121.831 97.6115 121.891 97.5966C121.965 97.5818 122.032 97.5669 122.091 97.5521L122.492 97.4853C122.581 97.4853 122.648 97.4778 122.693 97.463C122.886 97.4333 123.079 97.3962 123.272 97.3516C123.465 97.3071 123.658 97.27 123.851 97.2403C123.94 97.2254 124.029 97.2106 124.118 97.1957C124.222 97.1809 124.326 97.166 124.43 97.1512C124.593 97.1363 124.749 97.1215 124.898 97.1066C125.061 97.0769 125.217 97.0546 125.365 97.0398C125.44 97.025 125.506 97.0175 125.566 97.0175C125.64 97.0027 125.707 96.9953 125.766 96.9953C125.855 96.9656 125.922 96.9359 125.967 96.9062C125.996 96.8765 126.026 96.8542 126.056 96.8393C126.1 96.8245 126.13 96.8096 126.145 96.7948C126.279 96.676 126.427 96.6315 126.59 96.6611C126.635 96.6611 126.672 96.6537 126.702 96.6389C126.731 96.6389 126.769 96.6389 126.813 96.6389C126.858 96.6389 126.895 96.6463 126.925 96.6611C126.999 96.6908 127.066 96.7205 127.125 96.7502C127.184 96.7651 127.244 96.7948 127.303 96.8393C127.318 96.8542 127.333 96.8616 127.348 96.8616C127.467 96.9359 127.585 96.9433 127.704 96.8839C127.749 96.8542 127.801 96.8319 127.86 96.8171C127.919 96.7874 127.979 96.7651 128.038 96.7502C128.187 96.7057 128.335 96.7057 128.484 96.7502C128.528 96.7651 128.573 96.7799 128.617 96.7948C128.677 96.8096 128.721 96.8319 128.751 96.8616C128.84 96.9062 128.922 96.9804 128.996 97.0843C129.13 97.2774 129.219 97.4778 129.263 97.6857C129.293 97.7303 129.293 97.7748 129.263 97.8194C129.248 97.8639 129.234 97.9085 129.219 97.953C129.204 97.9827 129.189 98.0198 129.174 98.0644C129.159 98.0941 129.144 98.1312 129.13 98.1758C129.115 98.2055 129.1 98.2351 129.085 98.2648C129.085 98.3242 129.055 98.3688 128.996 98.3985C128.937 98.4133 128.892 98.4579 128.862 98.5321C128.833 98.5915 128.796 98.6064 128.751 98.5767C128.692 98.5767 128.654 98.5841 128.64 98.599C128.565 98.6583 128.484 98.7029 128.395 98.7326C128.305 98.7623 128.216 98.792 128.127 98.8217C127.964 98.8514 127.801 98.8959 127.637 98.9553C127.474 98.9999 127.311 99.0444 127.147 99.089C127.058 99.1187 126.991 99.1335 126.947 99.1335C126.858 99.1484 126.769 99.1706 126.68 99.2003C126.605 99.2152 126.531 99.2375 126.457 99.2672C126.442 99.282 126.42 99.2894 126.39 99.2894C126.375 99.2894 126.353 99.2969 126.323 99.3117C126.219 99.3266 126.108 99.3488 125.989 99.3785C125.885 99.4082 125.781 99.4453 125.677 99.4899C125.633 99.5196 125.566 99.5344 125.477 99.5344C125.358 99.5344 125.232 99.5567 125.098 99.6013C124.95 99.631 124.801 99.6607 124.653 99.6904C124.504 99.7052 124.348 99.7275 124.185 99.7572L123.717 99.824C123.524 99.8685 123.353 99.9205 123.205 99.9799C123.175 99.9948 123.138 100.01 123.093 100.024C123.049 100.039 123.012 100.054 122.982 100.069C122.67 100.128 122.381 100.24 122.113 100.403L121.935 100.47C121.816 100.485 121.698 100.522 121.579 100.581C121.475 100.641 121.364 100.7 121.245 100.759C121.156 100.819 121.096 100.863 121.067 100.893C121.037 100.923 121.007 100.967 120.977 101.027C120.903 101.205 120.866 101.361 120.866 101.495C120.881 101.598 120.888 101.695 120.888 101.784C120.888 101.888 120.896 101.999 120.911 102.118C120.94 102.296 120.933 102.46 120.888 102.608C120.888 102.668 120.874 102.742 120.844 102.831C120.784 102.92 120.725 102.979 120.666 103.009ZM120.666 90.8923C120.725 90.8626 120.755 90.818 120.755 90.7586C120.74 90.7289 120.732 90.6992 120.732 90.6696C120.732 90.625 120.725 90.5879 120.71 90.5582C120.636 90.3651 120.599 90.1944 120.599 90.0459C120.599 90.0162 120.591 89.9939 120.577 89.9791C120.577 89.9642 120.577 89.9494 120.577 89.9345C120.547 89.9048 120.532 89.89 120.532 89.89V89.9345C120.517 90.0088 120.502 90.0904 120.487 90.1795C120.487 90.2686 120.487 90.3577 120.487 90.4468V90.8032C120.517 90.8477 120.547 90.87 120.577 90.87C120.591 90.8849 120.621 90.8923 120.666 90.8923Z" fill="white"/>
</svg>
